<svg width="273" height="28" fill="none" xmlns="http://www.w3.org/2000/svg"><path d="M237.583.276a.714.714 0 0 1 .564-.276h.715c.149 0 .233.171.141.289l-4.567 5.872a.714.714 0 0 1-.564.276h-.715a.179.179 0 0 1-.141-.289l4.567-5.872ZM228.852 1.34c-.039-.368-.324-.625-.71-.625h-2.503l-.087.005a.683.683 0 0 0-.628.707v2.136l.004.087c.039.369.324.625.711.625h2.503l.087-.005a.684.684 0 0 0 .628-.707V1.427l-.005-.087ZM260.744 5.829a.774.774 0 0 1-.771-.688l-.004-.084v-3.57c0-.398.302-.725.691-.767l.084-.005h2.173c.4 0 .729.301.771.688l.004.084.001 1.008h2.498c.4 0 .729.3.771.687l.005.084v1.79a.774.774 0 0 1-.691.768l-.085.005h-5.447Z" fill="#39AE00"/><path fill-rule="evenodd" clip-rule="evenodd" d="M55.16 2.146c0-.395.321-.716.716-.716h2.146c.395 0 .715.32.715.716V14.304c0 1.185.96 2.146 2.145 2.146h1.847a5.706 5.706 0 0 1-.416-2.146v-2.146a5.722 5.722 0 0 1 11.443 0v2.146a5.722 5.722 0 0 1-5.722 5.722h-7.152a5.722 5.722 0 0 1-5.721-5.722V2.146Zm15.02 10.012a2.146 2.146 0 1 0-4.291 0v2.146a2.146 2.146 0 1 0 4.291 0v-2.146Z" fill="#39AE00"/><path d="M23.686 7.062c-.038-.369-.323-.625-.71-.625h-5.72l-.088.004a.683.683 0 0 0-.628.708v2.136l.005.087c.038.368.323.624.71.624h5.72l.088-.004a.683.683 0 0 0 .628-.707V7.149l-.005-.087ZM90.762 23.574a.774.774 0 0 0-.77-.688h-5.448l-.084.005a.774.774 0 0 0-.691.767v1.79l.004.085a.774.774 0 0 0 .771.688h2.499v1.007l.005.084a.774.774 0 0 0 .771.688h2.172l.085-.005a.773.773 0 0 0 .69-.767l.001-3.57-.005-.084Z" fill="#39AE00"/><path d="M17.328 20.767c0 2.958-2.591 5.594-5.55 5.693l-.17.002h-5.73c-3.158 0-5.627-2.398-5.71-5.514l-.001-.181V14.36c0-.385.257-.67.627-.708l.088-.004h2.145c.386 0 .672.256.71.625l.005.087-.008 6.395c0 1.145.894 2.079 2.02 2.144l.126.004h5.728c.94 0 2.061-1.084 2.14-2.031l.005-.105h-2.86c-.387 0-.672-.256-.711-.625l-.005-.087v-2.178c0-.385.258-.67.628-.708l.088-.004h12.053c1.185 0 2.146-.96 2.146-2.146v-4.291c0-.395.32-.715.715-.715h2.146c.395 0 .715.32.715.715v4.291c0 .759-.148 1.483-.416 2.146h14.747v-3.576c0-2.047-1.53-3.576-3.576-3.576H31.2c-.643 0-.767-.577-.357-1.073l6.022-7.692a1.468 1.468 0 0 1 1.131-.533h2.747c.553 0 .856.644.503 1.07l-3.61 4.652h1.787c4.1 0 7.151 3.05 7.151 7.152v6.437a.69.69 0 0 1-.715.715H27.973a.715.715 0 0 1-.588-.308l-.731-1.056a5.699 5.699 0 0 1-3.708 1.364h-5.623l.005.026ZM207.753 7.062c-.038-.369-.324-.625-.71-.625h-5.721l-.087.004a.683.683 0 0 0-.628.708v2.136l.005.087c.038.368.323.624.71.624h5.721l.087-.004a.684.684 0 0 0 .628-.707V7.149l-.005-.087ZM149.827 22.886c.386 0 .672.257.71.625l.005.087v2.136a.684.684 0 0 1-.628.708l-.087.004h-5.721c-.387 0-.672-.256-.71-.625l-.005-.087v-2.136c0-.385.257-.668.628-.707l.087-.005h5.721ZM139.811 3.486c-.039-.369-.324-.625-.711-.625h-2.146l-.087.004a.684.684 0 0 0-.628.708v2.136l.005.087c.038.368.323.624.71.624h2.146l.087-.004a.683.683 0 0 0 .628-.707V3.573l-.004-.087ZM177.362 2.86c.387 0 .672.257.711.626l.005.087v2.136a.684.684 0 0 1-.628.707l-.088.004h-2.502c-.387 0-.672-.256-.711-.624l-.004-.087V3.573c0-.385.257-.67.627-.708l.088-.004h2.502ZM160.191.715a.715.715 0 0 0-.565.276l-4.567 5.872a.179.179 0 0 0 .141.289h.715a.713.713 0 0 0 .564-.276l4.568-5.872a.18.18 0 0 0-.141-.289h-.715Z" fill="#39AE00"/><path fill-rule="evenodd" clip-rule="evenodd" d="M232.375 17.165a5.71 5.71 0 0 0 .416-2.146v-2.145a5.722 5.722 0 0 0-11.443 0v2.145c0 .759.148 1.483.416 2.146h-5.151a5.71 5.71 0 0 0 .416-2.146v-4.291a.715.715 0 0 0-.715-.715h-2.146a.715.715 0 0 0-.715.715v4.291a2.146 2.146 0 0 1-2.146 2.146h-14.276a2.146 2.146 0 0 1-2.146-2.146v-4.291a.715.715 0 0 0-.715-.715h-2.145a.715.715 0 0 0-.715.715v4.291a5.721 5.721 0 0 0 5.721 5.722h14.276a5.698 5.698 0 0 0 3.706-1.362l.73 1.054a.715.715 0 0 0 .588.308h26.47c1.679 0 3.182-.512 4.372-1.398l.754 1.09a.715.715 0 0 0 .588.308h4.274a5.698 5.698 0 0 0 3.706-1.362l.73 1.054a.714.714 0 0 0 .588.308h2.833c1.42 0 2.719-.517 3.719-1.373l.737 1.065a.717.717 0 0 0 .588.308h.688a5.722 5.722 0 0 0 5.722-5.722v-4.291a.716.716 0 0 0-.716-.715h-2.145a.715.715 0 0 0-.715.715v4.291a2.146 2.146 0 0 1-2.146 2.146h-.426a5.71 5.71 0 0 0 .416-2.146v-4.291a.716.716 0 0 0-.716-.715h-2.145a.715.715 0 0 0-.715.715v4.291a2.146 2.146 0 0 1-2.146 2.146h-2.551a5.71 5.71 0 0 0 .416-2.146v-4.291a.715.715 0 0 0-.715-.715h-2.146a.715.715 0 0 0-.715.715v4.291a2.146 2.146 0 0 1-2.146 2.146h-3.724c.568-1.038.886-2.252.886-3.576v-.715c0-4.102-3.05-7.152-7.15-7.152h-1.788l3.611-4.652A.653.653 0 0 0 244.12 0h-2.747c-.437 0-.852.195-1.131.533l-6.022 7.692c-.41.496-.286 1.073.357 1.073h8.224c2.046 0 3.575 1.529 3.575 3.576v.715c0 2.047-1.529 3.576-3.575 3.576h-10.426Zm-3.16-2.146v-2.145a2.145 2.145 0 1 0-4.291 0v2.145a2.146 2.146 0 0 0 4.291 0ZM104.51 17.165v-4.291a5.722 5.722 0 0 0-11.444 0v2.145a5.722 5.722 0 0 0 7.41 5.469c-.612 1.027-1.73 1.683-3.07 1.683h-3.03c-.643 0-.767.577-.357 1.073l1.53 1.955a1.43 1.43 0 0 0 1.126.548h.73c3.346 0 5.993-2.03 6.854-5.006h3.796a5.7 5.7 0 0 0 3.706-1.362l.729 1.054a.717.717 0 0 0 .589.308h2.833c1.42 0 2.719-.517 3.719-1.373l.737 1.065a.715.715 0 0 0 .588.308h.688a5.721 5.721 0 0 0 5.721-5.722v-4.291a.715.715 0 0 0-.715-.715h-2.145a.716.716 0 0 0-.716.715v4.291c0 1.185-.96 2.146-2.145 2.146h-.426a5.709 5.709 0 0 0 .415-2.146v-4.291a.715.715 0 0 0-.715-.715h-2.145a.716.716 0 0 0-.716.715v4.291c0 1.185-.96 2.146-2.145 2.146h-2.551a5.71 5.71 0 0 0 .416-2.146v-4.291a.716.716 0 0 0-.716-.715h-2.145a.715.715 0 0 0-.715.715v4.291a2.146 2.146 0 0 1-2.146 2.146h-3.545Zm-3.576-4.291v2.145a2.146 2.146 0 0 1-4.291 0v-2.145a2.146 2.146 0 1 1 4.291 0Z" fill="#39AE00"/><path d="m170.1 18.555 1.301 1.878a.714.714 0 0 0 .588.308h4.989a5.722 5.722 0 0 0 5.722-5.722v-4.291a.716.716 0 0 0-.716-.715h-2.145a.715.715 0 0 0-.715.715v4.291a2.146 2.146 0 0 1-2.146 2.146h-5.87c.569-1.038.887-2.252.887-3.576v-.715c0-4.102-3.051-7.152-7.151-7.152h-1.788l3.611-4.652a.653.653 0 0 0-.503-1.07h-2.747c-.438 0-.853.195-1.132.533l-6.022 7.692c-.41.496-.286 1.073.358 1.073h8.223c2.046 0 3.575 1.529 3.575 3.576v.715c0 2.047-1.529 3.576-3.575 3.576H152.96a5.69 5.69 0 0 0 .416-2.146v-4.291a.715.715 0 0 0-.715-.715h-2.145a.716.716 0 0 0-.716.715v4.291c0 1.185-.96 2.146-2.145 2.146h-7.793v-6.437a.716.716 0 0 0-.716-.715h-2.145a.715.715 0 0 0-.715.715v8.582c0 2.047-1.528 3.576-3.575 3.576h-3.029c-.644 0-.768.577-.358 1.073l1.53 1.955c.271.346.687.548 1.127.548h.73c4.1 0 7.151-3.05 7.151-7.152v-.012l.785 1.135a.715.715 0 0 0 .588.308h6.42a5.7 5.7 0 0 0 3.75-1.4l1.096 1.4h12.343c2.128 0 3.974-.822 5.256-2.186ZM79.594 20.433l-.167-.243c-.403 3.65-3.302 6.272-7.103 6.272h-.73a1.43 1.43 0 0 1-1.127-.548l-1.53-1.955c-.41-.496-.286-1.073.357-1.073h3.03c2.046 0 3.575-1.529 3.575-3.576v-8.582c0-.395.32-.715.715-.715h2.145c.395 0 .716.32.716.715v6.437h5.697c1.185 0 2.145-.96 2.145-2.146v-4.291c0-.395.32-.715.716-.715h2.145c.395 0 .715.32.715.715v4.291a5.722 5.722 0 0 1-5.721 5.722h-4.99a.715.715 0 0 1-.588-.308ZM42.524 23.96l1.53 1.954a1.43 1.43 0 0 0 1.127.548h.73c4.1 0 7.15-3.05 7.15-7.152v-8.582a.715.715 0 0 0-.714-.715H50.2a.715.715 0 0 0-.715.715v8.582c0 2.047-1.528 3.576-3.575 3.576h-3.03c-.643 0-.767.577-.357 1.073ZM185.588 2.146a.715.715 0 0 0-.715.715v17.165c0 .395.32.715.715.715h2.146c.394 0 .715-.32.715-.715V2.86a.716.716 0 0 0-.715-.715h-2.146Z" fill="#39AE00"/></svg>