<svg width="584" height="100" fill="none" xmlns="http://www.w3.org/2000/svg"><g opacity=".3"><mask id="mask0" mask-type="alpha" maskUnits="userSpaceOnUse" x="-210" y="-5" width="794" height="110"><path fill="url('#paint0_linear')" d="M-210-5h793.571v110H-210z"/></mask><g mask="url('#mask0')" fill="#39AE00"><path d="M16.368 59.733a1.39 1.39 0 1 0-2.78 0v2.781a1.39 1.39 0 1 0 2.78 0v-2.78ZM16.368 68.694a1.39 1.39 0 1 0-2.78 0v2.78a1.39 1.39 0 1 0 2.78 0v-2.78ZM16.677 65.604c0-.768.622-1.39 1.39-1.39h2.779a1.39 1.39 0 0 1 0 2.78h-2.78a1.39 1.39 0 0 1-1.39-1.39ZM9.11 64.213a1.39 1.39 0 0 0 0 2.781h2.78a1.39 1.39 0 0 0 0-2.78H9.11Z"/><g clip-path="url('#clip0')"><path d="M38.294 34.55c0-.682.553-1.235 1.235-1.235h1.235a1.236 1.236 0 0 1 0 2.471H39.53a1.236 1.236 0 0 1-1.235-1.236ZM42.617 34.55c0-.682.553-1.235 1.236-1.235h1.235a1.236 1.236 0 0 1 0 2.471h-1.235a1.236 1.236 0 0 1-1.236-1.236ZM48.176 33.315a1.236 1.236 0 0 0 0 2.471h4.633a1.236 1.236 0 0 0 0-2.471h-4.633Z"/></g><g clip-path="url('#clip1')"><path d="M38.294 96.348c0-.682.553-1.236 1.235-1.236h1.235a1.236 1.236 0 0 1 0 2.472H39.53a1.236 1.236 0 0 1-1.235-1.236ZM42.617 96.348c0-.682.553-1.236 1.236-1.236h1.235a1.236 1.236 0 0 1 0 2.472h-1.235a1.236 1.236 0 0 1-1.236-1.236ZM48.176 95.112a1.236 1.236 0 0 0 0 2.472h4.633a1.236 1.236 0 0 0 0-2.472h-4.633Z"/></g><path d="M18.891 8.957a1.235 1.235 0 1 0 1.747-1.747l-.437-.437a1.235 1.235 0 1 0-1.747 1.747l.437.437ZM16.052 6.117A1.235 1.235 0 1 0 17.8 4.37l-.436-.437a1.235 1.235 0 1 0-1.747 1.748l.436.437ZM14.96 3.277a1.235 1.235 0 0 1-1.747 0l-.436-.437a1.236 1.236 0 0 1 1.747-1.748l.437.437a1.236 1.236 0 0 1 0 1.748ZM10.375.436a1.235 1.235 0 1 0 1.747-1.747l-.437-.437A1.235 1.235 0 1 0 9.938-.001l.437.437ZM64.853-2.065a1.39 1.39 0 1 0-2.78 0V.716a1.39 1.39 0 1 0 2.78 0v-2.78ZM64.853 6.896a1.39 1.39 0 1 0-2.78 0v2.78a1.39 1.39 0 1 0 2.78 0v-2.78ZM65.162 3.806c0-.768.622-1.39 1.39-1.39h2.78a1.39 1.39 0 0 1 0 2.78h-2.78a1.39 1.39 0 0 1-1.39-1.39ZM57.596 2.416a1.39 1.39 0 0 0 0 2.78h2.78a1.39 1.39 0 0 0 0-2.78h-2.78ZM281.029 59.733a1.39 1.39 0 1 0-2.779 0v2.781a1.39 1.39 0 1 0 2.779 0v-2.78ZM281.029 68.694a1.39 1.39 0 1 0-2.779 0v2.78a1.39 1.39 0 1 0 2.779 0v-2.78ZM281.338 65.604c0-.768.622-1.39 1.39-1.39h2.779a1.39 1.39 0 0 1 0 2.78h-2.779a1.39 1.39 0 0 1-1.39-1.39ZM273.772 64.213a1.39 1.39 0 0 0 0 2.781h2.779a1.39 1.39 0 1 0 0-2.78h-2.779ZM86.162 65.45c0-.683.553-1.237 1.235-1.237h1.235a1.236 1.236 0 0 1 0 2.472h-1.235a1.236 1.236 0 0 1-1.235-1.236ZM90.485 65.45c0-.683.553-1.237 1.235-1.237h1.236a1.236 1.236 0 0 1 0 2.472H91.72a1.236 1.236 0 0 1-1.235-1.236ZM96.044 64.213a1.236 1.236 0 0 0 0 2.472h4.632a1.236 1.236 0 1 0 0-2.472h-4.632Z"/><path fill-rule="evenodd" clip-rule="evenodd" d="M91.793 29.063a1.235 1.235 0 0 1 1.746-.042l7.164 6.83c1.615 1.539.526 4.261-1.704 4.261h-9.436c-2.182 0-3.293-2.625-1.773-4.192l2.91-3.002a1.235 1.235 0 1 1 1.773 1.72l-2.91 3.002H99l-7.164-6.83a1.236 1.236 0 0 1-.042-1.747Z"/><path d="M62.638 95.783a1.236 1.236 0 0 0 1.747 1.748l.437-.437a1.236 1.236 0 0 0-1.747-1.748l-.437.437ZM217.05 3.087a1.235 1.235 0 1 0 1.747 1.748l.436-.437a1.235 1.235 0 1 0-1.747-1.748l-.436.437Z"/><g clip-path="url('#clip2')"><path d="M302.956 34.55c0-.682.553-1.235 1.235-1.235h1.235a1.235 1.235 0 0 1 0 2.471h-1.235a1.236 1.236 0 0 1-1.235-1.236ZM307.279 34.55c0-.682.553-1.235 1.235-1.235h1.236a1.235 1.235 0 0 1 0 2.471h-1.236a1.236 1.236 0 0 1-1.235-1.236ZM312.838 33.315a1.235 1.235 0 0 0 0 2.471h4.632a1.236 1.236 0 1 0 0-2.471h-4.632Z"/></g><g clip-path="url('#clip3')"><path d="M302.956 96.348c0-.682.553-1.236 1.235-1.236h1.235a1.235 1.235 0 0 1 0 2.472h-1.235a1.236 1.236 0 0 1-1.235-1.236ZM307.279 96.348c0-.682.553-1.236 1.235-1.236h1.236a1.235 1.235 0 0 1 0 2.472h-1.236a1.236 1.236 0 0 1-1.235-1.236ZM312.838 95.112a1.235 1.235 0 0 0 0 2.472h4.632a1.236 1.236 0 1 0 0-2.472h-4.632Z"/></g><path fill-rule="evenodd" clip-rule="evenodd" d="M149.866-2.417a1.388 1.388 0 0 1 1.417-.354L161.874.615a1.39 1.39 0 0 1 .199 2.569l-4.377 2.189-1.978 4.156a1.389 1.389 0 0 1-2.567-.141L149.548-.99a1.39 1.39 0 0 1 .318-1.427Zm3.219 3.142 1.58 4.55.728-1.53a1.39 1.39 0 0 1 .633-.645l1.75-.876-4.691-1.5Z"/><path d="M121.623 70.755a1.235 1.235 0 0 1-1.746-1.748l.436-.437a1.235 1.235 0 1 1 1.747 1.748l-.437.437ZM124.462 67.915a1.235 1.235 0 1 1-1.747-1.748l.437-.437a1.235 1.235 0 1 1 1.747 1.748l-.437.437ZM125.554 65.075a1.235 1.235 0 0 0 1.747 0l.437-.437a1.235 1.235 0 1 0-1.747-1.748l-.437.437a1.237 1.237 0 0 0 0 1.748ZM130.14 62.234a1.235 1.235 0 1 1-1.747-1.748l.437-.437a1.235 1.235 0 1 1 1.747 1.748l-.437.437ZM219.573 62.36a1.236 1.236 0 1 1 0 2.472h-7.72a1.236 1.236 0 0 1 0-2.472h7.72ZM224.206 66.376a1.236 1.236 0 0 1 0 2.472h-9.883a1.235 1.235 0 0 1 0-2.472h9.883Z"/><path fill-rule="evenodd" clip-rule="evenodd" d="m182.468 39.231.078.014c.509.085 1.223.165 2.034.143 1.633-.043 3.549-.491 5.061-2.005 1.523-1.523 2.053-3.54 2.175-5.285.012-.17.019-.335.024-.496l-3.988 3.99a1.235 1.235 0 1 1-1.747-1.747l3.988-3.99c-.161.004-.326.012-.496.023-1.744.122-3.76.653-5.282 2.176-1.513 1.513-1.96 3.43-2.004 5.064a10.65 10.65 0 0 0 .144 2.035l.013.078Zm10.391-10.397.268-1.206c.469.104.834.47.938.939l-1.206.267Zm0 0 .267-1.206h-.001l-.002-.001-.007-.002-.02-.004-.064-.013a12.765 12.765 0 0 0-1.003-.147 15.014 15.014 0 0 0-2.604-.049c-2.057.144-4.75.786-6.857 2.894-2.117 2.118-2.673 4.744-2.727 6.746a13.28 13.28 0 0 0 .177 2.51 11.486 11.486 0 0 0 .205.964l.017.062.006.02.002.006v.003l.001.001 1.184-.351-1.184.352c.119.4.432.714.832.833l.352-1.185-.351 1.185h.001l.003.001.006.002.02.006.062.017.214.054a13.188 13.188 0 0 0 3.258.328c2.001-.054 4.626-.61 6.742-2.729 2.107-2.108 2.749-4.802 2.892-6.861a15.02 15.02 0 0 0-.048-2.605 12.734 12.734 0 0 0-.107-.781c-.015-.094-.03-.17-.04-.223l-.013-.064-.004-.02-.002-.006v-.003s-.001-.002-1.207.266Z"/><g clip-path="url('#clip4')" fill-rule="evenodd" clip-rule="evenodd"><path d="M149.779 98.82c0-.682.553-1.236 1.236-1.236h.617a1.236 1.236 0 0 1 0 2.472h-.617a1.236 1.236 0 0 1-1.236-1.236ZM153.794 98.82c0-.682.553-1.236 1.235-1.236h.618a1.235 1.235 0 0 1 0 2.472h-.618a1.235 1.235 0 0 1-1.235-1.236ZM157.809 98.82c0-.682.553-1.236 1.235-1.236h.618a1.235 1.235 0 0 1 0 2.472h-.618a1.235 1.235 0 0 1-1.235-1.236ZM161.823 98.82c0-.682.553-1.236 1.236-1.236h.617a1.235 1.235 0 0 1 0 2.472h-.617a1.236 1.236 0 0 1-1.236-1.236ZM157.809 94.803c0-.682.553-1.236 1.235-1.236h2.779a1.236 1.236 0 1 1 0 2.472h-2.779a1.236 1.236 0 0 1-1.235-1.236ZM147.926 94.803c0-.682.553-1.236 1.236-1.236h6.176a1.236 1.236 0 0 1 0 2.472h-6.176a1.236 1.236 0 0 1-1.236-1.236Z"/></g><path d="M283.552 8.957a1.235 1.235 0 1 0 1.747-1.747l-.436-.437a1.235 1.235 0 1 0-1.747 1.747l.436.437ZM280.713 6.117a1.235 1.235 0 1 0 1.747-1.748l-.436-.437a1.235 1.235 0 1 0-1.747 1.748l.436.437ZM279.622 3.277a1.235 1.235 0 0 1-1.747 0l-.437-.437a1.235 1.235 0 1 1 1.747-1.748l.437.437a1.237 1.237 0 0 1 0 1.748ZM275.036.436a1.235 1.235 0 1 0 1.747-1.747l-.437-.437a1.235 1.235 0 1 0-1.747 1.747l.437.437ZM247.932 33.986a1.235 1.235 0 1 0 1.747 1.748l.437-.437a1.235 1.235 0 1 0-1.747-1.748l-.437.437Z"/><path fill-rule="evenodd" clip-rule="evenodd" d="M218.184 91.404a5.097 5.097 0 0 0-5.096 5.099 5.097 5.097 0 0 0 7.096 4.691 1.235 1.235 0 1 1 .97 2.273 7.568 7.568 0 0 1-10.536-6.964c0-4.181 3.387-7.57 7.566-7.57a7.568 7.568 0 0 1 7.566 7.57c0 1.074-.224 2.1-.63 3.028a1.236 1.236 0 1 1-2.264-.99 5.078 5.078 0 0 0 .423-2.038 5.097 5.097 0 0 0-5.095-5.099Z"/><path d="M329.515-2.065a1.39 1.39 0 1 0-2.78 0V.716a1.39 1.39 0 0 0 2.78 0v-2.78ZM329.515 6.896a1.39 1.39 0 1 0-2.78 0v2.78a1.39 1.39 0 0 0 2.78 0v-2.78ZM329.824 3.806c0-.768.622-1.39 1.389-1.39h2.78a1.39 1.39 0 0 1 0 2.78h-2.78a1.39 1.39 0 0 1-1.389-1.39ZM322.257 2.416a1.39 1.39 0 0 0 0 2.78h2.78a1.39 1.39 0 0 0 0-2.78h-2.78ZM545.691 59.733a1.39 1.39 0 0 0-2.78 0v2.781a1.39 1.39 0 1 0 2.78 0v-2.78ZM545.691 68.694a1.39 1.39 0 0 0-2.78 0v2.78a1.39 1.39 0 1 0 2.78 0v-2.78ZM545.999 65.604c0-.768.623-1.39 1.39-1.39h2.78a1.39 1.39 0 0 1 0 2.78h-2.78a1.39 1.39 0 0 1-1.39-1.39ZM538.433 64.213a1.39 1.39 0 0 0 0 2.781h2.78a1.39 1.39 0 0 0 0-2.78h-2.78ZM350.823 65.45c0-.683.553-1.237 1.235-1.237h1.235a1.236 1.236 0 1 1 0 2.472h-1.235a1.235 1.235 0 0 1-1.235-1.236ZM355.146 65.45c0-.683.553-1.237 1.236-1.237h1.235a1.236 1.236 0 0 1 0 2.472h-1.235a1.236 1.236 0 0 1-1.236-1.236ZM360.705 64.213a1.236 1.236 0 0 0 0 2.472h4.632a1.236 1.236 0 1 0 0-2.472h-4.632Z"/><path fill-rule="evenodd" clip-rule="evenodd" d="M356.455 29.063a1.234 1.234 0 0 1 1.746-.042l7.164 6.83c1.615 1.539.526 4.261-1.704 4.261h-9.435c-2.183 0-3.294-2.625-1.774-4.192l2.909-3.002a1.235 1.235 0 1 1 1.774 1.72l-2.909 3.002h9.435l-7.164-6.83a1.236 1.236 0 0 1-.042-1.747Z"/><path d="M327.3 95.783a1.235 1.235 0 1 0 1.747 1.748l.436-.437a1.235 1.235 0 1 0-1.747-1.748l-.436.437ZM481.711 3.087a1.235 1.235 0 1 0 1.747 1.748l.437-.437a1.235 1.235 0 1 0-1.747-1.748l-.437.437Z"/><g clip-path="url('#clip5')"><path d="M567.617 34.55c0-.682.553-1.235 1.235-1.235h1.235a1.236 1.236 0 0 1 0 2.471h-1.235a1.236 1.236 0 0 1-1.235-1.236ZM571.94 34.55c0-.682.553-1.235 1.235-1.235h1.236a1.235 1.235 0 0 1 0 2.471h-1.236a1.236 1.236 0 0 1-1.235-1.236ZM577.499 33.315a1.235 1.235 0 0 0 0 2.471h4.632a1.236 1.236 0 1 0 0-2.471h-4.632Z"/></g><g clip-path="url('#clip6')"><path d="M567.617 96.348c0-.682.553-1.236 1.235-1.236h1.235a1.236 1.236 0 0 1 0 2.472h-1.235a1.236 1.236 0 0 1-1.235-1.236ZM571.94 96.348c0-.682.553-1.236 1.235-1.236h1.236a1.235 1.235 0 0 1 0 2.472h-1.236a1.236 1.236 0 0 1-1.235-1.236ZM577.499 95.112a1.235 1.235 0 0 0 0 2.472h4.632a1.236 1.236 0 1 0 0-2.472h-4.632Z"/></g><path fill-rule="evenodd" clip-rule="evenodd" d="M414.527-2.417a1.389 1.389 0 0 1 1.418-.354L426.536.615a1.39 1.39 0 0 1 .198 2.569l-4.376 2.189-1.979 4.156a1.389 1.389 0 0 1-2.567-.141L414.209-.99a1.39 1.39 0 0 1 .318-1.427Zm3.22 3.142 1.579 4.55.728-1.53a1.39 1.39 0 0 1 .633-.645l1.75-.876-4.69-1.5Z"/><path d="M386.285 70.755a1.235 1.235 0 1 1-1.747-1.748l.437-.437a1.235 1.235 0 1 1 1.747 1.748l-.437.437ZM389.124 67.915a1.235 1.235 0 1 1-1.747-1.748l.437-.437a1.235 1.235 0 1 1 1.747 1.748l-.437.437ZM390.216 65.075a1.235 1.235 0 0 0 1.747 0l.437-.437a1.235 1.235 0 1 0-1.747-1.748l-.437.437a1.235 1.235 0 0 0 0 1.748ZM394.802 62.234a1.235 1.235 0 1 1-1.747-1.748l.436-.437a1.235 1.235 0 1 1 1.747 1.748l-.436.437ZM484.235 62.36a1.235 1.235 0 0 1 0 2.472h-7.721a1.236 1.236 0 0 1 0-2.472h7.721ZM488.867 66.376a1.236 1.236 0 0 1 0 2.472h-9.882a1.235 1.235 0 0 1 0-2.472h9.882Z"/><path fill-rule="evenodd" clip-rule="evenodd" d="m447.13 39.231.078.014c.509.085 1.223.165 2.034.143 1.633-.043 3.549-.491 5.062-2.005 1.522-1.523 2.052-3.54 2.174-5.285.012-.17.02-.335.024-.496l-3.988 3.99a1.235 1.235 0 1 1-1.747-1.747l3.988-3.99c-.161.004-.326.012-.496.023-1.743.122-3.76.653-5.282 2.176-1.512 1.513-1.96 3.43-2.004 5.064-.021.812.058 1.526.144 2.035l.013.078Zm10.392-10.397.267-1.206c.469.104.835.47.939.939l-1.206.267Zm0 0 .266-1.206h-.001l-.002-.001-.007-.002-.02-.004a12.765 12.765 0 0 0-1.067-.16 15.002 15.002 0 0 0-2.603-.049c-2.058.144-4.751.786-6.858 2.894-2.117 2.118-2.673 4.744-2.727 6.746a13.28 13.28 0 0 0 .177 2.51 11.486 11.486 0 0 0 .205.964l.017.062.006.02.002.006v.003l.001.001 1.184-.351-1.184.352c.119.4.432.714.832.833l.352-1.185-.351 1.185h.001l.003.001.007.002.019.006.062.017.214.054a13.188 13.188 0 0 0 3.258.328c2.001-.054 4.626-.61 6.743-2.729 2.107-2.108 2.748-4.802 2.892-6.861.072-1.04.02-1.951-.049-2.605a13.728 13.728 0 0 0-.147-1.004l-.013-.064-.004-.02-.001-.006-.001-.003s0-.002-1.206.266Z"/><g clip-path="url('#clip7')" fill-rule="evenodd" clip-rule="evenodd"><path d="M414.44 98.82c0-.682.553-1.236 1.236-1.236h.617a1.236 1.236 0 1 1 0 2.472h-.617a1.236 1.236 0 0 1-1.236-1.236ZM418.455 98.82c0-.682.553-1.236 1.235-1.236h.618a1.235 1.235 0 0 1 0 2.472h-.618a1.235 1.235 0 0 1-1.235-1.236ZM422.47 98.82c0-.682.553-1.236 1.235-1.236h.618a1.235 1.235 0 0 1 0 2.472h-.618a1.235 1.235 0 0 1-1.235-1.236ZM426.484 98.82c0-.682.553-1.236 1.236-1.236h.617a1.236 1.236 0 1 1 0 2.472h-.617a1.236 1.236 0 0 1-1.236-1.236ZM422.47 94.803c0-.682.553-1.236 1.235-1.236h2.779a1.236 1.236 0 1 1 0 2.472h-2.779a1.236 1.236 0 0 1-1.235-1.236ZM412.587 94.803c0-.682.553-1.236 1.236-1.236h6.176a1.236 1.236 0 0 1 0 2.472h-6.176a1.236 1.236 0 0 1-1.236-1.236Z"/></g><path d="M548.214 8.957a1.235 1.235 0 1 0 1.747-1.747l-.437-.437a1.235 1.235 0 1 0-1.747 1.747l.437.437ZM545.375 6.117a1.235 1.235 0 1 0 1.747-1.748l-.437-.437a1.235 1.235 0 1 0-1.747 1.748l.437.437ZM544.283 3.277a1.235 1.235 0 0 1-1.747 0l-.436-.437a1.235 1.235 0 1 1 1.747-1.748l.436.437a1.235 1.235 0 0 1 0 1.748ZM539.698.436a1.235 1.235 0 0 0 1.746-1.748l-.436-.436a1.235 1.235 0 1 0-1.747 1.747l.437.437ZM512.594 33.986a1.235 1.235 0 1 0 1.747 1.747l.436-.436a1.235 1.235 0 1 0-1.747-1.748l-.436.437Z"/><path fill-rule="evenodd" clip-rule="evenodd" d="M482.845 91.404a5.097 5.097 0 0 0-5.095 5.099 5.097 5.097 0 0 0 7.095 4.691 1.236 1.236 0 1 1 .971 2.273 7.568 7.568 0 0 1-10.537-6.964c0-4.181 3.388-7.57 7.566-7.57a7.569 7.569 0 0 1 7.567 7.57c0 1.074-.225 2.1-.63 3.028a1.236 1.236 0 1 1-2.264-.99 5.078 5.078 0 0 0 .423-2.038 5.097 5.097 0 0 0-5.096-5.099Z"/></g></g><defs><clipPath id="clip0"><path fill="#fff" transform="translate(37.368 25.899)" d="M0 0h17.294v17.303H0z"/></clipPath><clipPath id="clip1"><path fill="#fff" transform="translate(37.368 87.697)" d="M0 0h17.294v17.303H0z"/></clipPath><clipPath id="clip2"><path fill="#fff" transform="translate(302.029 25.899)" d="M0 0h17.294v17.303H0z"/></clipPath><clipPath id="clip3"><path fill="#fff" transform="translate(302.029 87.697)" d="M0 0h17.294v17.303H0z"/></clipPath><clipPath id="clip4"><path fill="#fff" transform="translate(147.618 87.697)" d="M0 0h17.294v17.303H0z"/></clipPath><clipPath id="clip5"><path fill="#fff" transform="translate(566.69 25.899)" d="M0 0h17.294v17.303H0z"/></clipPath><clipPath id="clip6"><path fill="#fff" transform="translate(566.69 87.697)" d="M0 0h17.294v17.303H0z"/></clipPath><clipPath id="clip7"><path fill="#fff" transform="translate(412.279 87.697)" d="M0 0h17.294v17.303H0z"/></clipPath><linearGradient id="paint0_linear" x1="-2" y1="50" x2="506.5" y2="50" gradientUnits="userSpaceOnUse"><stop/><stop offset=".721" stop-color="#C4C4C4" stop-opacity="0"/></linearGradient></defs></svg>