<svg width="135" height="40" fill="none" xmlns="http://www.w3.org/2000/svg"><path d="M0 4a4 4 0 0 1 4-4h127a4 4 0 0 1 4 4v32a4 4 0 0 1-4 4H4a4 4 0 0 1-4-4V4Z" fill="#fff"/><path d="M106.23 15.155a.828.828 0 0 0-.239.594c0 .232.081.432.239.601a.78.78 0 0 0 .59.254.762.762 0 0 0 .577-.253.849.849 0 0 0 .239-.602c0-.232-.08-.43-.239-.595a.773.773 0 0 0-.577-.246.792.792 0 0 0-.59.247Z" fill="#0C0C0C"/><path fill-rule="evenodd" clip-rule="evenodd" d="M104.135 22.577h-.095a3.71 3.71 0 0 1-.78-.08 1.525 1.525 0 0 1-.668-.326c-.272.27-.614.406-1.026.406h-5.649c-.514 0-.898-.155-1.15-.464-.255-.31-.38-.749-.38-1.32v-1.666h1.068v1.493c0 .31.062.524.19.645.125.12.328.181.61.181h5.086c.29 0 .478-.067.562-.203.085-.135.126-.342.126-.623v-1.493h1.096v1.55c0 .3.096.503.29.61.192.106.399.16.625.16h3.034c.338 0 .555-.07.654-.21a.777.777 0 0 0 .133-.501l-1.377-.044c-.478-.019-.824-.183-1.04-.492-.215-.31-.323-.706-.323-1.19 0-.26.044-.5.133-.724.09-.222.214-.416.373-.58.159-.164.349-.292.569-.384a1.9 1.9 0 0 1 .738-.138c.317 0 .599.069.843.203.243.135.447.312.611.53.164.217.287.463.372.739.085.275.127.558.127.848v.826c0 .3-.033.585-.098.855-.067.272-.168.51-.303.718a1.523 1.523 0 0 1-.512.493 1.42 1.42 0 0 1-.731.181h-3.108Zm3.649-3.429c.051.16.077.318.077.472l-1.152-.044a1.43 1.43 0 0 1-.457-.109c-.154-.062-.232-.195-.232-.398 0-.213.059-.392.176-.537.117-.145.324-.217.624-.217.161 0 .303.038.43.116.126.078.234.176.323.297.089.12.159.261.211.42Z" fill="#0C0C0C"/><path d="M90.592 22.577h-1.026v-7.06h1.026v7.06ZM86.77 16.503a.818.818 0 0 0-.238.594c0 .232.078.433.239.602.159.169.355.254.59.254a.765.765 0 0 0 .576-.254c.159-.17.239-.37.239-.602 0-.232-.08-.43-.24-.594a.775.775 0 0 0-.575-.247.79.79 0 0 0-.59.247ZM86.272 23.81c-.324.28-.813.42-1.469.42h-.674l.197 1.13.87.015c.413.009.785-.063 1.117-.217.333-.155.614-.367.844-.638.228-.27.407-.59.534-.957.126-.367.19-.764.19-1.189v-3.247h-1.124v3.523c0 .493-.162.88-.485 1.16ZM98.854 17.503c0-.203.069-.377.205-.522a.656.656 0 0 1 .499-.217c.196 0 .361.072.497.217a.731.731 0 0 1 .204.522.69.69 0 0 1-.204.5c-.136.14-.3.21-.497.21a.666.666 0 0 1-.5-.21.695.695 0 0 1-.204-.5ZM96.943 17.503c0-.203.069-.377.204-.522a.675.675 0 0 1 .512-.217c.19 0 .35.072.486.217a.735.735 0 0 1 .203.522c0 .193-.067.36-.203.5a.654.654 0 0 1-.486.21.686.686 0 0 1-.512-.21.698.698 0 0 1-.204-.5ZM112.344 22.577c-.545 0-.975-.142-1.293-.427-.319-.285-.479-.748-.479-1.385v-5.248h1.068v5.06c0 .366.074.604.219.71.145.106.344.158.597.158h1.672c.177 0 .321-.02.428-.064a.58.58 0 0 0 .246-.173.55.55 0 0 0 .106-.262c.014-.102.021-.21.021-.325v-1.494h1.096v1.666c0 .542-.129.975-.387 1.298-.258.325-.653.487-1.188.487h-1.741a.93.93 0 0 1-.034 0h-.331ZM114.092 23.977a.691.691 0 0 0-.204.499c0 .204.068.377.204.523a.673.673 0 0 0 .513.216.644.644 0 0 0 .485-.216.739.739 0 0 0 .204-.523.691.691 0 0 0-.204-.5.656.656 0 0 0-.485-.21.686.686 0 0 0-.513.21ZM112.294 23.977a.691.691 0 0 0-.204.499c0 .204.068.377.204.523a.653.653 0 0 0 .497.216.657.657 0 0 0 .5-.216.743.743 0 0 0 .204-.523.695.695 0 0 0-.204-.5.67.67 0 0 0-.5-.21.667.667 0 0 0-.497.21ZM117.928 23.809c.322-.28.485-.667.485-1.16v-3.521h1.124v3.247c0 .424-.064.82-.189 1.188a2.968 2.968 0 0 1-.534.956c-.23.27-.512.481-.845.63-.331.15-.703.226-1.116.226l-.477-.015-.183-1.13h.267c.656 0 1.145-.14 1.468-.421ZM120.943 21.461l.139 1.116h3.332c.523 0 .92-.14 1.186-.421.267-.28.4-.613.4-1 0-.213-.044-.43-.133-.652a2.02 2.02 0 0 0-.401-.623l-2.389-2.624-.715.754 2.403 2.624c.12.135.182.275.182.42 0 .106-.042.2-.127.283-.084.082-.21.123-.38.123h-3.497Z" fill="#0C0C0C"/><path fill-rule="evenodd" clip-rule="evenodd" d="M27.815 13.88c2.185.164 6.681.79 7.185 1.975-.247 2.599-1.133 8.445-2.704 11.042C30.333 30.142 27.111 33 22 33s-8.333-2.858-10.296-6.103C10.134 24.3 9.247 18.454 9 15.855c.504-1.186 5-1.811 7.185-1.976.21-.588.904-2.272 2-4.304C19.282 7.543 20.704 7 22 7c1.296 0 2.718.543 3.815 2.575 1.096 2.032 1.79 3.716 2 4.304ZM22 9.222c.778 0 1.63 1.058 1.963 1.658.267.48.963 2.057 1.26 2.787h-6.445c.296-.73.992-2.308 1.259-2.787.333-.6 1.185-1.658 1.963-1.658Z" fill="url('#paint0_linear_15_11020')"/><path d="M54.05 21.025a2.19 2.19 0 0 0 4.376 0V10.188a2.189 2.189 0 0 0-4.377 0v10.837ZM71.483 21.065h4.35a2.17 2.17 0 0 1-.003 4.34h-5.44a3.267 3.267 0 0 1-3.267-3.268V12.35a2.18 2.18 0 0 1 4.36 0v8.715ZM47.53 14.492a2.18 2.18 0 0 1 2.18-2.18c1.203 0 2.18.975 2.178 2.18v7.645a3.267 3.267 0 0 1-3.268 3.267h-5.45a2.17 2.17 0 0 1 0-4.339h4.36v-6.573Z" fill="#000"/><path d="M62.773 16.654a2.18 2.18 0 0 0-2.18 2.18v6.573h-4.36a2.17 2.17 0 0 0 0 4.34h5.45a3.267 3.267 0 0 0 3.268-3.268v-7.645c0-1.205-.975-2.18-2.178-2.18ZM62.773 14.53a2.207 2.207 0 1 0 0-4.414 2.207 2.207 0 0 0 0 4.414ZM71.54 29.727a2.207 2.207 0 1 1-4.414 0 2.207 2.207 0 0 1 4.414 0Z" fill="#000"/><path d="M4 1h127v-2H4v2Zm130 3v32h2V4h-2Zm-3 35H4v2h127v-2ZM1 36V4h-2v32h2Zm3 3a3 3 0 0 1-3-3h-2a5 5 0 0 0 5 5v-2Zm130-3a3 3 0 0 1-3 3v2a5 5 0 0 0 5-5h-2Zm-3-35a3 3 0 0 1 3 3h2a5 5 0 0 0-5-5v2ZM4-1a5 5 0 0 0-5 5h2a3 3 0 0 1 3-3v-2Z" fill="#E0E0E0"/><defs><linearGradient id="paint0_linear_15_11020" x1="22" y1="7" x2="22" y2="33" gradientUnits="userSpaceOnUse"><stop stop-color="#8FC345"/><stop offset="1" stop-color="#118F4E"/></linearGradient></defs></svg>