<svg width="91" height="17" fill="none" xmlns="http://www.w3.org/2000/svg"><g clip-path="url('#clip0')" fill-rule="evenodd" clip-rule="evenodd" fill="#424750"><path d="M40.195 10.406h3.512V5.723h-3.512c-.606 0-1.17.566-1.17 1.17v2.342c0 .605.564 1.17 1.17 1.17Zm14.049 0h3.512V5.723h-3.512c-.606 0-1.17.566-1.17 1.17v2.342c0 .605.564 1.17 1.17 1.17Zm-8.195-6.44v8.196c0 .258-.327.585-.586.585l-1.17.012c-.26 0-.586-.339-.586-.597v-.39l-.53.637c-.163.22-.562.338-.835.338h-2.147c-1.883 0-3.512-1.633-3.512-3.512V6.893c0-1.878 1.629-3.512 3.512-3.512h5.268c.26 0 .586.328.586.586Zm14.049 0v8.196c0 .258-.327.585-.586.585l-1.17.012c-.26 0-.586-.339-.586-.597v-.39l-.531.637c-.162.22-.561.338-.835.338h-2.146c-1.883 0-3.512-1.633-3.512-3.512V6.893c0-1.878 1.629-3.512 3.512-3.512h5.268c.259 0 .586.328.586.586ZM21.073 5.724h-3.512c-.606 0-1.17.566-1.17 1.17v2.342c0 .605.564 1.17 1.17 1.17h3.512V5.724Zm2.342-1.756v8.975c0 1.88-1.63 3.317-3.513 3.317h-1.81a.86.86 0 0 1-.685-.34l-1.03-1.36c-.171-.226-.075-.641.208-.641h3.317c.607 0 1.171-.371 1.171-.976v-.195h-3.512c-1.883 0-3.512-1.633-3.512-3.512V6.893c0-1.878 1.629-3.512 3.512-3.512h2.146c.269 0 .562.216.751.39l.615.586v-.39c0-.258.327-.586.585-.586h1.171c.26 0 .586.327.586.586ZM2.34 9.235c0 .604.565 1.17 1.171 1.17h3.512V5.724H3.512c-.606 0-1.17.566-1.17 1.17v2.342ZM8.781.259c.259 0 .585.327.585.586v11.317c0 .258-.326.585-.586.585H7.61c-.26 0-.586-.327-.586-.585v-.39l-.613.656c-.167.185-.487.32-.752.32H3.512C1.63 12.747 0 11.113 0 9.234V6.91c0-1.879 1.629-3.53 3.512-3.53h3.512V.845c0-.259.327-.586.586-.586h1.17Zm24.195 7.805 3.258-4.125a.343.343 0 0 0-.268-.559h-1.864a.47.47 0 0 0-.363.173l-3.3 4.12V.846c0-.259-.326-.586-.585-.586h-1.171c-.26 0-.585.327-.585.586v11.317c0 .258.326.585.585.585h1.17c.26 0 .586-.327.586-.585V8.454l3.302 4.13a.47.47 0 0 0 .365.175h1.862c.289 0 .45-.334.268-.559l-3.26-4.136ZM25.17.26c-.26 0-.586.327-.586.586v1.17c0 .259.327.586.586.586h1.17c.26 0 .586-.327.586-.586V.845c0-.259-.327-.586-.585-.586H25.17Zm0 3.122c-.26 0-.586.327-.586.586v8.195c0 .258.419.597.677.597l1.08-.012c.258 0 .585-.327.585-.585V3.967c0-.259-.327-.586-.585-.586H25.17ZM11.122.26c-.259 0-.585.327-.585.586v1.17c0 .259.326.586.585.586h1.17c.26 0 .586-.327.586-.586V.845c0-.259-.326-.586-.585-.586h-1.171Zm0 3.122c-.259 0-.585.327-.585.586v8.195c0 .258.326.585.585.585h1.17c.26 0 .586-.327.586-.585V3.967c0-.259-.326-.586-.585-.586h-1.171ZM49.561.845v11.317c0 .258-.326.585-.585.585h-1.171c-.26 0-.586-.327-.586-.585V.845c0-.259.327-.586.586-.586h1.17c.26 0 .586.327.586.586ZM63.697.934a.706.706 0 0 0-.758-.26c-.295.074-.5.317-.5.59v10.87c0 .338.306.613.682.613.377 0 .683-.274.683-.612V3.36l.178.25 1.088 1.528c.127.175.342.28.575.28.125 0 .248-.03.356-.088a.62.62 0 0 0 .313-.4.56.56 0 0 0-.094-.453L63.697.934Z"/><path d="M70.694.676a.706.706 0 0 0-.763.258l-4.696 6.595a.56.56 0 0 0-.094.454c.038.165.152.31.313.398.109.06.233.091.358.091a.699.699 0 0 0 .573-.282l3.26-4.58.179-.25v8.775c0 .338.306.612.682.612.377 0 .683-.274.683-.612V1.264c0-.273-.203-.515-.495-.588ZM78.076 1.049c-.095-.239-.354-.4-.645-.4a.79.79 0 0 0-.216.031.652.652 0 0 0-.4.336.548.548 0 0 0-.014.444l2.24 5.601.052.134h-3.436l.05-.132 1.24-3.274a.547.547 0 0 0-.023-.443.656.656 0 0 0-.41-.329.768.768 0 0 0-.214-.03.671.671 0 0 0-.637.414l-3.218 8.545a.546.546 0 0 0 .024.443.653.653 0 0 0 .406.328c.068.02.138.03.212.03.292 0 .55-.166.642-.413l1.45-3.86.023-.064h4.377l.025.062 1.55 3.873c.095.241.351.402.637.402.071 0 .145-.01.224-.033a.653.653 0 0 0 .399-.335.549.549 0 0 0 .014-.444L78.076 1.049ZM89.74 2.729a.73.73 0 0 0 .942.07.551.551 0 0 0 .08-.85c-1.246-1.284-3.313-1.3-3.4-1.3-3.262 0-4.2 2.203-4.24 3.367v3.45c0 .33.303.598.675.598.372 0 .675-.268.675-.599V4.04c.01-.229.178-2.193 2.888-2.193.015 0 1.544.024 2.38.882ZM83.278 9.045a.575.575 0 0 0-.156.412c.04 1.182.978 3.29 4.24 3.29.087 0 2.153-.015 3.4-1.324a.586.586 0 0 0 .165-.4V7.896c0-.338-.303-.612-.676-.612h-4.046c-.372 0-.675.274-.675.612 0 .338.303.612.675.612h3.371v2.27l-.037.03c-.858.695-2.164.715-2.177.715-2.712 0-2.88-1.88-2.89-2.109-.016-.323-.33-.587-.7-.587a.707.707 0 0 0-.494.218Z"/></g><defs><clipPath id="clip0"><path fill="#fff" transform="translate(0 .26)" d="M0 0h90.927v16H0z"/></clipPath></defs></svg>