<svg width="46" height="16" fill="none" xmlns="http://www.w3.org/2000/svg"><path d="M9.369.014h-1.44a.422.422 0 0 0-.423.422V3.44H3.801c-.212 0-.42.02-.62.06A3.308 3.308 0 0 0 .652 6.717v2.557a3.306 3.306 0 0 0 3.306 3.307h2.22a.42.42 0 0 0 .298-.124h.001l1.03-1.034v.736c0 .232.19.422.421.422h1.406c.21 0 .385-.135.45-.32a.344.344 0 0 0 .007-.071V.436a.423.423 0 0 0-.423-.422Zm-1.863 10.28h-3.59a.978.978 0 0 1-.978-.978V6.704a.98.98 0 0 1 .977-.98h3.591v4.57ZM23.043 3.448h-1.407a.422.422 0 0 0-.422.422v.713l-.006-.008-1.004-1.004a.486.486 0 0 0-.298-.123h-2.24a3.306 3.306 0 0 0-3.305 3.305v2.559a3.308 3.308 0 0 0 2.527 3.214c.201.04.409.06.621.06h3.705v.055c0 .18-.036.361-.123.52-.186.34-.547.57-.962.57h-2.814c-.592 0-.894.716-.477 1.137l.902.92a.67.67 0 0 0 .478.2h1.918c.404 0 .79-.07 1.146-.2 1.304-.472 2.216-1.732 2.216-3.21v-8.74a.317.317 0 0 0-.006-.07.476.476 0 0 0-.45-.32Zm-1.829 6.848h-3.592a.978.978 0 0 1-.977-.979V6.704c0-.54.438-.978.979-.978h3.59v4.57ZM12.796 3.44h-1.441a.422.422 0 0 0-.422.423v8.295c0 .233.19.422.422.422h1.441a.422.422 0 0 0 .422-.422V3.863a.422.422 0 0 0-.422-.422ZM13.028.07h-1.431a.42.42 0 0 0-.419.42v1.43c0 .232.188.42.419.42h1.43a.42.42 0 0 0 .42-.42V.49a.42.42 0 0 0-.42-.42ZM26.503 3.44h-1.44a.422.422 0 0 0-.422.423v8.295c0 .233.189.422.422.422h1.44a.422.422 0 0 0 .423-.422V3.863a.422.422 0 0 0-.423-.422ZM26.637.07h-1.43a.419.419 0 0 0-.419.42v1.43c0 .232.188.42.419.42h1.43a.419.419 0 0 0 .42-.42V.49a.42.42 0 0 0-.42-.42ZM34.554 3.432h-3.062V2.285h3.063c.233 0 .422-.19.422-.422V.423A.422.422 0 0 0 34.555 0H32.354c-.212 0-.42.022-.621.06a3.283 3.283 0 0 0-.995.425 3.303 3.303 0 0 0-1.532 2.79v.154h-.72a.422.422 0 0 0-.422.422v1.44c0 .233.19.422.422.422h.72v6.434c0 .233.19.423.423.423h1.44c.232 0 .422-.19.422-.423V6.139c0-.011 0-.216.002-.42h1.58v-.002h1.481a.422.422 0 0 0 .423-.42V3.854a.423.423 0 0 0-.422-.423ZM45.259 3.764a.471.471 0 0 0-.449-.319h-1.407a.425.425 0 0 0-.423.424v6.43h-3.595a.976.976 0 0 1-.98-.977V3.869a.424.424 0 0 0-.424-.424h-1.44a.423.423 0 0 0-.424.424v5.447a3.317 3.317 0 0 0 2.531 3.219c.203.037.41.058.624.058h3.708v.056c0 .181-.034.362-.123.522a1.1 1.1 0 0 1-.965.568h-2.815a.67.67 0 0 0-.478 1.14c.326.331.658.67.904.922a.66.66 0 0 0 .473.199h1.926c.402 0 .79-.07 1.146-.2a3.4 3.4 0 0 0 2.22-3.216V3.835a.267.267 0 0 0-.01-.07Z" fill="#424750"/></svg>