<svg width="78" height="20" fill="none" xmlns="http://www.w3.org/2000/svg"><path fill-rule="evenodd" clip-rule="evenodd" d="M11.142 0c.324 0 .732.409.732.732v14.146c0 .323-.408.732-.732.732H9.68c-.324 0-.732-.409-.732-.732v-.488l-.767.821c-.208.231-.609.399-.94.399H4.557c-2.354 0-4.39-2.042-4.39-4.39V8.315c0-2.349 2.036-4.413 4.39-4.413h4.39V.732c0-.323.408-.732.732-.732h1.463ZM3.094 11.22c0 .755.705 1.463 1.463 1.463h4.39V6.829h-4.39c-.758 0-1.463.708-1.463 1.464v2.927Zm26.341-6.586v11.22c0 2.348-2.036 4.146-4.39 4.146h-2.262c-.337 0-.654-.157-.857-.425l-1.288-1.7c-.214-.283-.094-.802.26-.802h4.147c.757 0 1.463-.464 1.463-1.22v-.243h-4.39c-2.354 0-4.39-2.042-4.39-4.39V8.293c0-2.349 2.036-4.39 4.39-4.39h2.683c.336 0 .702.27.939.487l.768.732v-.488c0-.322.409-.732.732-.732h1.463c.324 0 .732.41.732.732ZM26.508 6.83h-4.39c-.758 0-1.463.708-1.463 1.464v2.927c0 .755.705 1.463 1.463 1.463h4.39V6.829Zm8.78 8.78V4.635c0-.323.409-.732.732-.732h1.464c.323 0 .731.41.731.732v.488l.77-.732c.236-.217.602-.488.938-.488h2.683c2.354 0 4.39 2.042 4.39 4.39v2.928c0 2.348-2.036 4.39-4.39 4.39h-4.39v2.927a1.463 1.463 0 0 1-2.927 0V15.61Zm7.318-8.78h-4.39v5.854h4.39c.757 0 1.463-.707 1.463-1.463V8.293c0-.756-.706-1.464-1.463-1.464Zm21.951-1.463a1.463 1.463 0 1 0-2.927 0v5.366l-.003.08c-.047.727-.732 1.383-1.46 1.383H57.24l-.08-.002c-.726-.048-1.383-.73-1.383-1.461V5.366a1.463 1.463 0 1 0-2.927 0v5.366l.002.126c.07 2.3 2.081 4.264 4.388 4.264h2.927l.125-.002c2.295-.07 4.265-2.076 4.265-4.388V5.366ZM31.63 0c-.323 0-.732.409-.732.732v1.463c0 .323.409.732.732.732h1.464c.323 0 .731-.409.731-.732V.732c0-.323-.408-.732-.731-.732H31.63Zm-.732 4.634c0-.323.409-.732.732-.732h1.464c.323 0 .731.41.731.732v10.244c0 .323-.408.732-.731.732l-1.35.015c-.323 0-.846-.424-.846-.747V4.634ZM14.07 0c-.324 0-.732.409-.732.732v1.463c0 .323.409.732.732.732h1.464c.323 0 .731-.409.731-.732V.732c0-.323-.408-.732-.731-.732h-1.464Zm-.732 4.634c0-.323.409-.732.732-.732h1.464c.323 0 .731.41.731.732v10.244c0 .323-.408.732-.731.732h-1.464c-.324 0-.732-.41-.732-.732V4.634ZM51.387.732v14.146c0 .323-.409.732-.732.732H49.19c-.324 0-.732-.41-.732-.732V.732c0-.323.408-.732.732-.732h1.464c.323 0 .731.409.731.732Zm15.121 13.412c0 .81.657 1.466 1.466 1.466h6.402c1.8 0 3.314-1.426 3.351-3.234a3.298 3.298 0 0 0-2.478-3.272l-6.033-1.538a.372.372 0 0 1-.273-.426.381.381 0 0 1 .38-.306h6.45a1.466 1.466 0 1 0 0-2.932h-6.401c-1.8 0-3.314 1.426-3.35 3.234a3.298 3.298 0 0 0 2.477 3.272l6.033 1.538c.185.047.307.23.273.426a.381.381 0 0 1-.38.306h-6.45c-.81 0-1.467.656-1.467 1.466Z" fill="#424750"/><mask id="mask0" mask-type="alpha" maskUnits="userSpaceOnUse" x="0" y="0" width="78" height="20"><path fill-rule="evenodd" clip-rule="evenodd" d="M11.142 0c.324 0 .732.409.732.732v14.146c0 .323-.408.732-.732.732H9.68c-.324 0-.732-.409-.732-.732v-.488l-.767.821c-.208.231-.609.399-.94.399H4.557c-2.354 0-4.39-2.042-4.39-4.39V8.315c0-2.349 2.036-4.413 4.39-4.413h4.39V.732c0-.323.408-.732.732-.732h1.463ZM3.094 11.22c0 .755.705 1.463 1.463 1.463h4.39V6.829h-4.39c-.758 0-1.463.708-1.463 1.464v2.927Zm26.341-6.586v11.22c0 2.348-2.036 4.146-4.39 4.146h-2.262c-.337 0-.654-.157-.857-.425l-1.288-1.7c-.214-.283-.094-.802.26-.802h4.147c.757 0 1.463-.464 1.463-1.22v-.243h-4.39c-2.354 0-4.39-2.042-4.39-4.39V8.293c0-2.349 2.036-4.39 4.39-4.39h2.683c.336 0 .702.27.939.487l.768.732v-.488c0-.322.409-.732.732-.732h1.463c.324 0 .732.41.732.732ZM26.508 6.83h-4.39c-.758 0-1.463.708-1.463 1.464v2.927c0 .755.705 1.463 1.463 1.463h4.39V6.829Zm8.78 8.78V4.635c0-.323.409-.732.732-.732h1.464c.323 0 .731.41.731.732v.488l.77-.732c.236-.217.602-.488.938-.488h2.683c2.354 0 4.39 2.042 4.39 4.39v2.928c0 2.348-2.036 4.39-4.39 4.39h-4.39v2.927a1.463 1.463 0 0 1-2.927 0V15.61Zm7.318-8.78h-4.39v5.854h4.39c.757 0 1.463-.707 1.463-1.463V8.293c0-.756-.706-1.464-1.463-1.464Zm21.951-1.463a1.463 1.463 0 1 0-2.927 0v5.366l-.003.08c-.047.727-.732 1.383-1.46 1.383H57.24l-.08-.002c-.726-.048-1.383-.73-1.383-1.461V5.366a1.463 1.463 0 1 0-2.927 0v5.366l.002.126c.07 2.3 2.081 4.264 4.388 4.264h2.927l.125-.002c2.295-.07 4.265-2.076 4.265-4.388V5.366ZM31.63 0c-.323 0-.732.409-.732.732v1.463c0 .323.409.732.732.732h1.464c.323 0 .731-.409.731-.732V.732c0-.323-.408-.732-.731-.732H31.63Zm-.732 4.634c0-.323.409-.732.732-.732h1.464c.323 0 .731.41.731.732v10.244c0 .323-.408.732-.731.732l-1.35.015c-.323 0-.846-.424-.846-.747V4.634ZM14.07 0c-.324 0-.732.409-.732.732v1.463c0 .323.409.732.732.732h1.464c.323 0 .731-.409.731-.732V.732c0-.323-.408-.732-.731-.732h-1.464Zm-.732 4.634c0-.323.409-.732.732-.732h1.464c.323 0 .731.41.731.732v10.244c0 .323-.408.732-.731.732h-1.464c-.324 0-.732-.41-.732-.732V4.634ZM51.387.732v14.146c0 .323-.409.732-.732.732H49.19c-.324 0-.732-.41-.732-.732V.732c0-.323.408-.732.732-.732h1.464c.323 0 .731.409.731.732Zm15.121 13.412c0 .81.657 1.466 1.466 1.466h6.402c1.8 0 3.314-1.426 3.351-3.234a3.298 3.298 0 0 0-2.478-3.272l-6.033-1.538a.372.372 0 0 1-.273-.426.381.381 0 0 1 .38-.306h6.45a1.466 1.466 0 1 0 0-2.932h-6.401c-1.8 0-3.314 1.426-3.35 3.234a3.298 3.298 0 0 0 2.477 3.272l6.033 1.538c.185.047.307.23.273.426a.381.381 0 0 1-.38.306h-6.45c-.81 0-1.467.656-1.467 1.466Z" fill="#fff"/></mask><g mask="url('#mask0')"><path fill="#424750" d="M.167 0h78v20h-78z"/></g></svg>