<svg width="64" height="17" fill="none" xmlns="http://www.w3.org/2000/svg"><path fill-rule="evenodd" clip-rule="evenodd" d="M8.498 4.024H4.25C1.902 4.024 0 5.71 0 7.789v.94c0 2.08 1.902 3.766 4.25 3.766h6.373V.259H8.498v3.765Zm0 6.588H4.25c-1.173 0-2.124-.843-2.124-1.882v-.941c0-1.04.95-1.883 2.124-1.883H8.5v4.706Zm3.187-6.588h2.124v8.47h-2.124v-8.47Zm3.187 4.706v-.941c0-2.08 1.902-3.765 4.249-3.765h6.373v8.47c0 2.08-1.902 3.765-4.249 3.765h-2.124l-1.195-1.882h3.32c1.173 0 2.124-.843 2.124-1.882h-4.25c-2.346 0-4.248-1.686-4.248-3.765Zm4.249 1.882h4.249V5.906h-4.25c-1.172 0-2.124.843-2.124 1.883v.94c0 1.04.952 1.883 2.125 1.883Zm42.49-6.588v6.588h-4.248c-1.174 0-2.125-.843-2.125-1.882V4.024h-2.124V8.73c0 2.079 1.902 3.765 4.249 3.765h4.249c0 1.04-.952 1.882-2.125 1.882h-3.32l1.196 1.882h2.124c2.347 0 4.25-1.685 4.25-3.764V4.024h-2.125ZM41.43 7.789v.94c0 2.08 1.902 3.766 4.249 3.766h6.373V4.024h-6.373c-2.347 0-4.25 1.685-4.25 3.765Zm8.498 2.823h-4.25c-1.173 0-2.124-.843-2.124-1.882v-.941c0-1.04.951-1.883 2.125-1.883h4.249v4.706ZM29.744 4.024h6.373c2.347 0 4.25 1.685 4.25 3.765v.94c0 2.08-1.903 3.766-4.25 3.766h-4.249v3.764h-2.124V4.024Zm6.373 6.588c1.174 0 2.125-.843 2.125-1.882v-.941c0-1.04-.951-1.883-2.125-1.883h-4.249v4.706h4.25ZM13.81.26h-2.125v1.883h2.124V.259Zm12.747 3.765h2.124v8.47h-2.124v-8.47ZM28.68.259h-2.124v1.883h2.124V.259Z" fill="#424750"/></svg>