<svg width="97" height="16" fill="none" xmlns="http://www.w3.org/2000/svg"><g clip-path="url('#clip0')"><g clip-path="url('#clip1')" fill="#424750"><path d="M12.291 3.183h-1.335a.471.471 0 0 0-.474.473v8.446c0 .263.21.473.474.473h1.335c.263 0 .473-.21.473-.473V3.656a.471.471 0 0 0-.473-.473ZM12.249-.12h-1.336a.471.471 0 0 0-.473.474v1.21c0 .262.21.472.473.472h1.336c.263 0 .473-.21.473-.473V.353a.471.471 0 0 0-.473-.473ZM26.164 3.183h-1.336a.471.471 0 0 0-.473.473v8.446c0 .263.21.473.473.473h1.336c.263 0 .473-.21.473-.473V3.656a.471.471 0 0 0-.473-.473ZM26.164-.12h-1.336a.471.471 0 0 0-.473.474v1.21c0 .262.21.472.473.472h1.336c.263 0 .473-.21.473-.473V.353a.471.471 0 0 0-.473-.473ZM47.378 12.575h-1.893a.449.449 0 0 1-.368-.179l-2.209-2.755-2.209 2.755a.463.463 0 0 1-.368.18H38.45a.35.35 0 0 1-.274-.569L41.5 7.874 38.175 3.74a.348.348 0 0 1 .274-.568h1.893c.147 0 .273.063.368.18l2.209 2.713 2.208-2.714a.463.463 0 0 1 .368-.179h1.894a.35.35 0 0 1 .273.568l-3.323 4.134 3.323 4.133c.168.232.01.568-.284.568ZM8.873-.12H7.41a.471.471 0 0 0-.473.474v2.829H3.414a3.463 3.463 0 0 0-3.46 3.46v2.482a3.456 3.456 0 0 0 3.46 3.46H5.76a.852.852 0 0 0 .683-.336l.484-.63v.483c0 .263.21.473.473.473h1.462c.263 0 .474-.21.474-.473V.354a.456.456 0 0 0-.463-.474ZM6.927 10.167h-3.46c-.61 0-1.115-.495-1.115-1.115V6.706c0-.61.494-1.115 1.115-1.115h3.46v4.576ZM22.746 3.183h-1.462a.471.471 0 0 0-.474.473v.494l-.473-.63a.867.867 0 0 0-.694-.348h-2.356a3.456 3.456 0 0 0-3.46 3.46v2.483a3.463 3.463 0 0 0 3.46 3.46h3.523v.158c0 .61-.494 1.115-1.114 1.115h-3.208a.345.345 0 0 0-.274.557l1.041 1.378c.169.22.421.347.695.347h1.809a3.456 3.456 0 0 0 3.46-3.46V3.646a.47.47 0 0 0-.473-.463Zm-1.936 7.11h-3.46c-.61 0-1.115-.494-1.115-1.115V6.706c0-.61.495-1.115 1.115-1.115h3.46v4.702ZM54.593 3.183h-2.356a.867.867 0 0 0-.694.347l-.473.631v-.494a.471.471 0 0 0-.473-.474h-1.462a.471.471 0 0 0-.474.474v12c0 .263.221.474.505.474h1.41c.273 0 .504-.21.504-.474v-3.081h3.524a3.456 3.456 0 0 0 3.46-3.46V6.642a3.479 3.479 0 0 0-3.47-3.46Zm1.042 5.995c0 .61-.495 1.115-1.115 1.115h-3.46V5.6h3.46c.61 0 1.115.495 1.115 1.116v2.46ZM64.974 3.646v1.483c0 .252-.21.462-.463.462h-2.303a.644.644 0 0 0-.642.642v6.027c0 .263-.22.473-.504.473h-1.41c-.273 0-.505-.21-.505-.473V3.814c0-.263.221-.473.505-.473h1.41c.273 0 .505.21.505.473v.337l.473-.632a.867.867 0 0 1 .694-.347h1.767c.263.01.473.221.473.474ZM35.82 10.272H30.98a.826.826 0 0 1-.83-.831V8.4l.483.62c.147.19.379.316.62.326h2.777a3.082 3.082 0 0 0 3.082-3.208v-.031c-.074-1.41-1.105-2.535-2.43-2.85a2.96 2.96 0 0 0-.746-.085h-3.145a3.01 3.01 0 0 0-2.997 3.008v3.26a3.185 3.185 0 0 0 3.186 3.188h4.838a.53.53 0 0 0 .526-.537v-1.293a.527.527 0 0 0-.526-.526ZM30.15 6.18c0-.357.295-.652.652-.652h3.24c.305 0 .557.18.673.442.042.095.063.19.063.305 0 .41-.326.736-.736.736H30.15v-.83ZM74.125 10.272h-4.838a.826.826 0 0 1-.831-.831V8.4l.483.62c.148.19.379.316.62.326h2.778a3.082 3.082 0 0 0 3.081-3.208v-.031c-.073-1.41-1.104-2.535-2.43-2.85a2.959 2.959 0 0 0-.746-.085h-3.145A3.01 3.01 0 0 0 66.1 6.18v3.26a3.185 3.185 0 0 0 3.188 3.188h4.838a.53.53 0 0 0 .525-.537v-1.293a.52.52 0 0 0-.525-.526Zm-5.67-4.092c0-.357.295-.652.653-.652h3.24c.304 0 .556.18.672.442.042.095.063.19.063.305 0 .41-.326.736-.736.736h-3.891v-.83ZM85.862 9.904c0 1.43-1.21 2.597-2.703 2.597h-5.585a.527.527 0 0 1-.525-.525v-1.294c0-.295.241-.526.525-.526h5.585c.2 0 .347-.137.347-.252 0-.106-.094-.2-.231-.232l-4.712-1.315c-1.167-.305-1.988-1.335-1.988-2.513 0-1.43 1.21-2.598 2.703-2.598h5.185c.295 0 .526.242.526.526v1.293a.527.527 0 0 1-.526.526h-5.185c-.2 0-.347.137-.347.253 0 .105.095.2.231.231l4.712 1.315c1.168.315 1.988 1.346 1.988 2.514ZM96.306 9.904c0 1.43-1.21 2.597-2.703 2.597h-5.585a.527.527 0 0 1-.526-.525v-1.294c0-.295.242-.526.526-.526h5.585c.2 0 .347-.137.347-.252 0-.106-.094-.2-.231-.232l-4.712-1.315c-1.168-.305-1.988-1.335-1.988-2.513 0-1.43 1.21-2.598 2.703-2.598h5.185c.295 0 .526.242.526.526v1.293a.527.527 0 0 1-.526.526h-5.185c-.2 0-.347.137-.347.253 0 .105.095.2.231.231L94.318 7.4c1.178.305 1.988 1.336 1.988 2.504Z"/></g></g><defs><clipPath id="clip0"><path fill="#fff" d="M0 0h96.533v16H0z"/></clipPath><clipPath id="clip1"><path fill="#fff" transform="translate(-.166 -4.8)" d="M0 0h96.533v25.6H0z"/></clipPath></defs></svg>