<svg width="86" height="13" fill="none" xmlns="http://www.w3.org/2000/svg"><path fill-rule="evenodd" clip-rule="evenodd" d="M29.532 6.261v-.69h-6.77v1.38h5.204c-.371 2.23-2.564 3.957-5.204 3.957-2.9 0-5.26-2.085-5.26-4.647 0-2.561 2.36-4.646 5.26-4.646 1.7 0 3.304.732 4.29 1.957L28.3 2.79C27.026 1.208 24.956.264 22.762.264c-3.745 0-6.79 2.69-6.79 5.997 0 3.308 3.045 5.998 6.79 5.998 3.744 0 6.79-2.69 6.77-5.998Zm39.574 4.501V.446H67.62v11.63h8.108v-1.314h-6.62ZM65.218.446l-4.137 5.909L56.943.446h-1.75L60.33 7.78v4.296h1.488V7.804L66.968.446h-1.75ZM43.023 11.254c.827-.619 1.264-1.525 1.264-2.621 0-1.115-.51-1.96-1.517-2.51-.823-.45-1.987-.71-3.662-.82-3.052-.25-3.053-1.393-3.053-1.768 0-1.187 1.174-1.954 2.991-1.954 1.842 0 3.23.84 3.23 1.954h1.497c0-1.867-2.032-3.276-4.727-3.276-2.642 0-4.486 1.347-4.486 3.276 0 .92.442 1.687 1.28 2.218.735.465 1.79.756 3.138.866l.013.001c3.506.228 3.8 1.159 3.8 2.013 0 .562 0 2.273-3.534 2.273-2.205 0-3.745-1.005-3.745-2.443h-1.496c0 2.18 2.204 3.764 5.241 3.764 1.637 0 2.904-.327 3.766-.973Zm42.455-9.56V.447h-8.263v11.63h8.263v-1.314h-6.776V6.916h5.43V5.602h-5.43V1.695h6.776ZM54.5.44H44.298v1.314h4.357v10.325h1.488V1.754H54.5V.44ZM31.02 12.076h1.488V.446H31.02v11.63Zm-18.036 0h1.487V.446h-1.487v11.63ZM0 12.076V.446h4.9c3.591 0 6.52 2.552 6.583 5.71.066 3.266-2.976 5.92-6.673 5.92H0Zm1.488-1.314H4.82c2.798 0 5.136-1.963 5.176-4.434.042-2.512-2.26-4.567-5.095-4.567H1.488v9.001Z" fill="#424750"/></svg>