<svg width="100" height="16" fill="none" xmlns="http://www.w3.org/2000/svg"><path fill-rule="evenodd" clip-rule="evenodd" d="M75.466 6.73a1 1 0 0 1 .996-.997h3.018a.575.575 0 0 1 0 1.15h-4.014v-.152Zm1.029 2.317c.079.08.186.125.3.125h2.627c1.602 0 2.945-1.31 2.917-2.913a2.865 2.865 0 0 0-2.86-2.812h-3.017a3.286 3.286 0 0 0-3.281 3.284v2.596a3.286 3.286 0 0 0 3.281 3.284h4.313a.422.422 0 0 0 .422-.423v-1.44a.422.422 0 0 0-.422-.424h-4.313a1 1 0 0 1-.996-.997V8.019l1.029 1.028ZM89.331 3.44h-2.24a.419.419 0 0 0-.297.123l-1.046 1.034V.48A.479.479 0 0 0 85.272 0h-1.334a.472.472 0 0 0-.45.322.233.233 0 0 0-.008.07v11.795c0 .234.192.424.424.424h1.45c.234 0 .424-.19.424-.424v-1.869h-.005V5.718h3.614c.54 0 .98.44.98.982v5.49c0 .232.19.422.424.422h1.433c.234 0 .422-.19.422-.422V6.757a3.317 3.317 0 0 0-3.315-3.317ZM72.02 6.754v5.428a.427.427 0 0 1-.425.426h-1.43a.427.427 0 0 1-.427-.426V6.7a.98.98 0 0 0-.978-.984h-1.462c.111.325.17.676.17 1.038v5.428a.427.427 0 0 1-.426.426h-1.43a.422.422 0 0 1-.42-.426V6.7a.978.978 0 0 0-.952-.979c-.01-.005-.022-.005-.032-.005h-1.313v6.466a.422.422 0 0 1-.42.426h-1.452a.426.426 0 0 1-.42-.426v-8.35c0-.027 0-.048.005-.07a.473.473 0 0 1 .452-.319h1.33c.266 0 .479.213.479.474v.681l1.042-1.032a.418.418 0 0 1 .298-.123h-.073c.127 0 .274.006.401.022h.006a3.33 3.33 0 0 1 1.962.952c.032.032.059.064.086.096l.957-.947a.418.418 0 0 1 .298-.123h.86a3.31 3.31 0 0 1 3.314 3.31ZM99.09 3.446h-1.681a.418.418 0 0 0-.3.124l-1.031 1.036V3.87a.424.424 0 0 0-.423-.423H94.21a.421.421 0 0 0-.423.423v8.32c0 .234.19.423.423.423h1.445c.233 0 .423-.19.423-.423V6.161c0-.233.19-.423.423-.423h2.588c.234 0 .423-.19.423-.423V3.869a.423.423 0 0 0-.423-.423ZM29.732 12.115c0 .26-.212.472-.47.472h-1.35a.471.471 0 0 1-.47-.472V.472c0-.26.21-.472.47-.472h1.398c.232 0 .422.19.422.423v11.692ZM49.168 12.116c0 .259-.212.47-.471.47h-1.35a.471.471 0 0 1-.47-.47V.472c0-.26.21-.472.47-.472h1.398c.232 0 .423.19.423.423v11.693ZM6.86 10.298H3.267a.98.98 0 0 1-.98-.98V6.7a.98.98 0 0 1 .979-.98H6.86v4.577ZM8.725 0H7.283a.423.423 0 0 0-.423.423v3.01H3.152c-.213 0-.421.021-.622.06A3.313 3.313 0 0 0 0 6.714v2.562a3.311 3.311 0 0 0 3.31 3.312H5.53a.418.418 0 0 0 .3-.124l1.03-1.036v.737c0 .232.19.423.422.423h1.408c.21 0 .385-.135.45-.32a.326.326 0 0 0 .006-.072V.423A.423.423 0 0 0 8.725 0ZM43.448 10.312h-3.605a.98.98 0 0 1-.98-.98V6.701a.98.98 0 0 1 .979-.98h3.606v4.591Zm1.865-6.88H39.74c-.213 0-.421.022-.622.062a3.313 3.313 0 0 0-2.53 3.219v2.562a3.311 3.311 0 0 0 3.31 3.312h2.234a.42.42 0 0 0 .297-.123l1.043-1.032v.678c0 .262.215.477.476.477h1.331c.21 0 .385-.135.45-.32a.325.325 0 0 0 .007-.072v-8.34a.423.423 0 0 0-.423-.422ZM57.17 10.312h-3.605a.98.98 0 0 1-.98-.98V6.701a.98.98 0 0 1 .979-.98h3.606v4.591Zm1.865-6.88h-5.573c-.213 0-.421.022-.622.062a3.313 3.313 0 0 0-2.53 3.219v2.562a3.31 3.31 0 0 0 3.31 3.312h2.234a.422.422 0 0 0 .297-.123l1.043-1.032v.678c0 .262.214.477.476.477h1.331c.21 0 .386-.135.45-.32a.325.325 0 0 0 .007-.072v-8.34a.423.423 0 0 0-.423-.422ZM20.581 10.299h-3.595a.98.98 0 0 1-.978-.98V6.702a.98.98 0 0 1 .979-.98h3.594v4.577Zm2.28-6.539a.475.475 0 0 0-.45-.32h-1.407a.423.423 0 0 0-.423.422v.715l-.006-.009-1.005-1.005a.487.487 0 0 0-.298-.123H17.03a3.31 3.31 0 0 0-3.309 3.31v2.564a3.313 3.313 0 0 0 2.53 3.219c.201.04.409.06.622.06h3.708v.055c0 .181-.036.362-.123.521-.186.34-.548.572-.963.572h-2.817a.669.669 0 0 0-.477 1.138l.903.921a.67.67 0 0 0 .478.2h1.92c.404 0 .79-.07 1.147-.2 1.305-.473 2.219-1.735 2.219-3.216V3.831a.331.331 0 0 0-.007-.07ZM12.578 3.856v8.308c0 .233-.19.423-.423.423h-1.442a.423.423 0 0 1-.422-.423V3.856c0-.234.189-.423.422-.423h1.442c.234 0 .423.19.423.423ZM12.578.423v1.443c0 .234-.19.423-.423.423h-1.442a.423.423 0 0 1-.422-.423V.423c0-.233.189-.423.422-.423h1.442c.234 0 .423.19.423.423ZM26.298 3.856v8.308c0 .233-.189.423-.422.423h-1.443a.423.423 0 0 1-.422-.423V3.856c0-.234.19-.423.422-.423h1.443c.233 0 .422.19.422.423ZM26.298.423v1.443c0 .234-.189.423-.422.423h-1.443a.423.423 0 0 1-.422-.423V.423c0-.233.19-.423.422-.423h1.443c.233 0 .422.19.422.423Z" fill="#424750"/><path fill-rule="evenodd" clip-rule="evenodd" d="M29.732 7.773c.46-.492 3.28-3.28 4.112-4.177a.496.496 0 0 1 .36-.156h1.895c.426 0 .659.514.36.813-1.167 1.167-3.796 3.76-3.796 3.76l3.797 3.835a.432.432 0 0 1-.31.739h-1.978a.496.496 0 0 1-.36-.156c-.838-.902-3.638-3.668-4.08-4.143v-.515Z" fill="#424750"/></svg>