<svg width="123" height="16" fill="none" xmlns="http://www.w3.org/2000/svg"><path fill-rule="evenodd" clip-rule="evenodd" d="M40.437 10.146h3.501V5.463h-3.5c-.605 0-1.168.567-1.168 1.171v2.342c0 .604.563 1.17 1.167 1.17Zm14.004 0h3.501V5.463h-3.5c-.605 0-1.168.567-1.168 1.171v2.342c0 .604.563 1.17 1.167 1.17Zm-8.169-6.439v8.195c0 .259-.325.586-.583.586l-1.167.012c-.258 0-.584-.34-.584-.598v-.39l-.53.638c-.16.22-.559.338-.831.338h-2.14c-1.877 0-3.5-1.633-3.5-3.512V6.634c0-1.879 1.623-3.512 3.5-3.512h5.252c.258 0 .583.327.583.585Zm14.004 0v8.195c0 .259-.325.586-.583.586l-1.167.012c-.258 0-.584-.34-.584-.598v-.39l-.53.638c-.16.22-.559.338-.831.338h-2.14c-1.877 0-3.5-1.633-3.5-3.512V6.634c0-1.879 1.623-3.512 3.5-3.512h5.252c.258 0 .583.327.583.585Zm-38.9 1.756h-3.5c-.605 0-1.168.567-1.168 1.171v2.342c0 .604.563 1.17 1.167 1.17h3.501V5.463Zm2.334-1.756v8.976c0 1.879-1.623 3.317-3.5 3.317h-1.805a.856.856 0 0 1-.683-.34l-1.027-1.36c-.17-.226-.075-.642.208-.642h3.306c.604 0 1.167-.37 1.167-.975v-.195h-3.5c-1.878 0-3.502-1.633-3.502-3.512V6.634c0-1.879 1.624-3.512 3.501-3.512h2.14c.267 0 .56.216.748.39l.613.586v-.39c0-.259.326-.586.584-.586h1.167c.258 0 .583.327.583.585ZM2.704 8.976c0 .604.563 1.17 1.167 1.17h3.501V5.463h-3.5c-.605 0-1.168.567-1.168 1.171v2.342ZM9.123 0c.258 0 .583.327.583.585v11.317c0 .259-.325.586-.583.586H7.956c-.259 0-.584-.327-.584-.586v-.39l-.612.657c-.165.185-.485.319-.75.319H3.872c-1.877 0-3.5-1.633-3.5-3.512V6.652c0-1.879 1.623-3.53 3.5-3.53h3.501V.585c0-.258.325-.585.584-.585h1.167ZM33.24 7.805l3.248-4.125a.344.344 0 0 0-.267-.559h-1.858a.468.468 0 0 0-.362.172l-3.29 4.122V.585c0-.258-.325-.585-.583-.585h-1.167c-.259 0-.584.327-.584.585v11.317c0 .259.325.586.584.586h1.167c.258 0 .583-.327.583-.586V8.195l3.291 4.13c.089.11.223.175.364.175h1.856a.344.344 0 0 0 .268-.559l-3.25-4.136ZM25.46 0c-.258 0-.584.327-.584.585v1.171c0 .258.326.585.584.585h1.167c.258 0 .583-.327.583-.585V.586c0-.259-.325-.586-.583-.586H25.46Zm0 3.122c-.258 0-.584.327-.584.585v8.195c0 .259.417.598.675.598l1.076-.012c.258 0 .583-.327.583-.586V3.707c0-.258-.325-.585-.583-.585H25.46ZM11.457 0c-.259 0-.584.327-.584.585v1.171c0 .258.325.585.584.585h1.167c.258 0 .583-.327.583-.585V.586c0-.259-.325-.586-.583-.586h-1.167Zm0 3.122c-.259 0-.584.327-.584.585v8.195c0 .259.325.586.584.586h1.167c.258 0 .583-.327.583-.586V3.707c0-.258-.325-.585-.583-.585h-1.167ZM49.773.585v11.317c0 .259-.325.586-.583.586h-1.167c-.259 0-.584-.327-.584-.586V.585c0-.258.325-.585.584-.585h1.167c.258 0 .583.327.583.585Z" fill="#424750"/><path d="M69.428 7.638c.82.473 1.229 1.188 1.229 2.144 0 .795-.28 1.447-.842 1.957-.56.509-1.25.763-2.07.763h-3.968v-9.38h3.687c.802 0 1.474.25 2.017.75.553.492.829 1.121.829 1.89 0 .777-.294 1.402-.882 1.876ZM67.464 4.85h-1.843v2.064h1.843a.936.936 0 0 0 .708-.295c.196-.196.294-.442.294-.737 0-.294-.093-.54-.28-.737a.952.952 0 0 0-.722-.295Zm.28 5.924c.313 0 .57-.103.776-.308.205-.215.307-.483.307-.805 0-.312-.102-.571-.307-.777a1.026 1.026 0 0 0-.775-.321H65.62v2.21h2.124ZM75.287 12.69c-1.042 0-1.897-.295-2.565-.884-.668-.59-1.002-1.38-1.002-2.372V3.122h1.83v6.164c0 .492.138.88.414 1.166.285.286.726.429 1.323.429s1.033-.143 1.309-.429c.285-.286.427-.674.427-1.166V3.122h1.844v6.312c0 .991-.334 1.782-1.002 2.372-.668.59-1.527.884-2.578.884ZM83.72 12.69c-.926 0-1.705-.205-2.337-.616a3.366 3.366 0 0 1-1.336-1.702l1.576-.925c.365.956 1.082 1.434 2.15 1.434.517 0 .896-.094 1.136-.281a.865.865 0 0 0 .361-.71c0-.331-.147-.586-.44-.765-.295-.187-.82-.388-1.577-.603-.419-.125-.775-.25-1.069-.375a5.1 5.1 0 0 1-.868-.496 2.124 2.124 0 0 1-.655-.804 2.617 2.617 0 0 1-.227-1.125c0-.85.299-1.524.895-2.024.606-.51 1.332-.764 2.178-.764.757 0 1.42.188 1.99.563.579.366 1.029.88 1.35 1.541l-1.55.898c-.374-.804-.971-1.206-1.79-1.206-.383 0-.686.09-.909.268a.814.814 0 0 0-.32.67c0 .295.12.536.36.724.25.178.722.375 1.416.59.285.089.5.16.642.214.151.044.351.12.6.227.259.099.455.193.588.282.143.09.303.21.481.362s.312.308.401.469c.098.16.178.357.24.59.072.223.108.468.108.737 0 .866-.317 1.554-.949 2.063-.623.51-1.438.764-2.445.764ZM88.25 3.122h1.844v9.38h-1.843v-9.38ZM97.235 3.122h1.844v9.38h-1.403L93.67 6.767v5.735h-1.844v-9.38h1.403l4.007 5.722V3.122ZM102.657 10.734h3.941v1.768h-5.785v-9.38h5.718V4.89h-3.874v1.996h3.54V8.63h-3.54v2.104ZM111.09 12.69c-.926 0-1.706-.205-2.338-.616a3.366 3.366 0 0 1-1.336-1.702l1.576-.925c.366.956 1.083 1.434 2.151 1.434.517 0 .895-.094 1.136-.281a.866.866 0 0 0 .36-.71c0-.331-.147-.586-.44-.765-.294-.187-.82-.388-1.577-.603-.418-.125-.775-.25-1.068-.375a5.11 5.11 0 0 1-.869-.496 2.119 2.119 0 0 1-.654-.804c-.152-.321-.227-.697-.227-1.125 0-.85.298-1.524.895-2.024.605-.51 1.331-.764 2.177-.764.757 0 1.421.188 1.99.563.579.366 1.029.88 1.35 1.541l-1.55.898c-.374-.804-.971-1.206-1.79-1.206-.383 0-.686.09-.908.268a.814.814 0 0 0-.321.67c0 .295.12.536.361.724.249.178.721.375 1.416.59.285.089.498.16.641.214.151.044.352.12.601.227.258.099.454.193.588.282.142.09.303.21.481.362s.311.308.401.469c.098.16.178.357.24.59.071.223.107.468.107.737 0 .866-.316 1.554-.949 2.063-.623.51-1.438.764-2.444.764ZM118.591 12.69c-.926 0-1.706-.205-2.338-.616a3.371 3.371 0 0 1-1.336-1.702l1.577-.925c.365.956 1.082 1.434 2.15 1.434.517 0 .895-.094 1.136-.281a.867.867 0 0 0 .361-.71c0-.331-.147-.586-.441-.765-.294-.187-.82-.388-1.577-.603-.418-.125-.774-.25-1.068-.375a5.11 5.11 0 0 1-.869-.496 2.119 2.119 0 0 1-.654-.804c-.152-.321-.227-.697-.227-1.125 0-.85.298-1.524.895-2.024.605-.51 1.331-.764 2.177-.764.757 0 1.421.188 1.991.563.578.366 1.028.88 1.349 1.541l-1.55.898c-.374-.804-.97-1.206-1.79-1.206-.383 0-.686.09-.908.268a.814.814 0 0 0-.321.67c0 .295.12.536.361.724.249.178.721.375 1.416.59.285.089.499.16.641.214.151.044.352.12.601.227.259.099.454.193.588.282.143.09.303.21.481.362s.312.308.401.469c.098.16.178.357.24.59.071.223.107.468.107.737 0 .866-.316 1.554-.948 2.063-.624.51-1.439.764-2.445.764Z" fill="#424750"/></svg>