<svg width="153" height="41" fill="none" xmlns="http://www.w3.org/2000/svg"><path fill-rule="evenodd" clip-rule="evenodd" d="M49.497 8.815c.247 0 .592.142.766.315l2.58 2.577.017.021v-1.83c0-.598.487-1.083 1.086-1.083h3.615c.539 0 .99.344 1.155.82.013.059.017.12.017.182v22.43c0 3.796-2.345 7.029-5.699 8.242A8.624 8.624 0 0 1 50.09 41h-4.932c-.462 0-.898-.182-1.226-.511l-2.32-2.362c-1.072-1.08-.297-2.916 1.226-2.916h7.232a2.818 2.818 0 0 0 2.475-1.465c.223-.407.317-.871.317-1.334v-.141h-9.525c-.547 0-1.081-.054-1.597-.157-3.729-.898-6.498-4.253-6.498-8.248v-6.567c0-4.687 3.805-8.484 8.498-8.484h5.758ZM99.072.035c.597 0 1.085.488 1.085 1.084v29.962c0 .664-.544 1.207-1.21 1.207h-3.464c-.67 0-1.209-.543-1.209-1.207V1.244c0-.664.539-1.208 1.21-1.208h3.588Zm35.224 0c.599 0 1.085.485 1.085 1.083v7.713h9.525c.546 0 1.08.055 1.597.157 3.728.899 6.497 4.253 6.497 8.248v6.565c0 4.687-3.806 8.487-8.501 8.487h-5.705c-.231 0-.455-.073-.64-.21a.899.899 0 0 1-.128-.106l-.002-.002-2.646-2.653v1.888c0 .596-.487 1.083-1.084 1.083h-3.616a1.22 1.22 0 0 1-1.154-.821.778.778 0 0 1-.018-.182V1.118c0-.598.486-1.083 1.085-1.083h3.705Zm-26.422 8.804a1.085 1.085 0 0 1 1.091 1.084v13.989a2.513 2.513 0 0 0 2.515 2.511h9.23l-.006-16.49c0-.599.486-1.084 1.085-1.084h3.708c.599 0 1.085.485 1.085 1.083l.002 21.353c0 .063-.633 1.003-1.171 1.003h-3.615a1.088 1.088 0 0 1-1.086-1.083v-1.888l-2.645 2.653a.92.92 0 0 1-.131.108c-.184.136-.407.21-.64.21h-5.705c-4.695 0-8.5-3.8-8.5-8.487V9.941c0-.596.482-1.08 1.079-1.083l3.704-.019Zm-21.29-.077c.35-.01.69.124.936.369l3.444 3.438c.773.772.263 2.126-.824 2.126h-4.55l-2.593.001h-2.692l-1.73.001a2.513 2.513 0 0 0-2.515 2.511v6.706a2.513 2.513 0 0 0 2.513 2.511l11.678-.002c.598 0 1.084.485 1.084 1.084v3.698c0 .598-.486 1.084-1.084 1.084H78.28a8.249 8.249 0 0 1-1.599-.157c-3.728-.899-6.497-4.253-6.497-8.249V17.32c0-3.885 2.617-7.163 6.185-8.17a8.672 8.672 0 0 1 2.316-.317h.153l.14-.001c1.29-.005 6.43-.025 7.606-.069ZM22.41 0c.599 0 1.085.486 1.085 1.083V31.25a.848.848 0 0 1-.017.182 1.22 1.22 0 0 1-1.155.821h-3.615a1.088 1.088 0 0 1-1.085-1.083v-1.887l-2.646 2.652a.894.894 0 0 1-.13.108c-.184.137-.408.21-.64.21H8.5c-4.693 0-8.5-3.8-8.5-8.487v-6.564c0-3.996 2.769-7.35 6.497-8.25a8.243 8.243 0 0 1 1.598-.155h9.525V1.082C17.62.486 18.105 0 18.704 0h3.705Zm8.81 8.797c.6 0 1.086.485 1.086 1.084v21.29c0 .598-.486 1.083-1.085 1.083h-3.705c-.6 0-1.085-.485-1.085-1.084V9.88c0-.598.486-1.083 1.085-1.083h3.704Zm35.24 0c.6 0 1.085.485 1.085 1.084v21.29c0 .598-.486 1.083-1.085 1.083h-3.704c-.6 0-1.085-.485-1.085-1.084V9.88c0-.598.486-1.083 1.085-1.083h3.704Zm78.153 5.898h-9.231v11.728h9.229a2.513 2.513 0 0 0 2.515-2.512v-6.705a2.512 2.512 0 0 0-2.513-2.511Zm-91.751-.033h-9.232a2.514 2.514 0 0 0-2.515 2.511v6.706a2.513 2.513 0 0 0 2.513 2.511h9.233V14.662ZM17.62 14.66H8.388a2.513 2.513 0 0 0-2.514 2.51v6.707a2.513 2.513 0 0 0 2.516 2.511h9.23V14.66ZM66.46.036c.599 0 1.084.485 1.084 1.083v3.698c0 .598-.486 1.083-1.085 1.083h-3.704c-.6 0-1.085-.485-1.085-1.083V1.119c0-.598.486-1.083 1.085-1.083h3.704ZM31.22 0c.599 0 1.085.485 1.085 1.083v3.698c0 .598-.486 1.083-1.085 1.083h-3.705c-.6 0-1.085-.485-1.085-1.083V1.084c0-.598.486-1.083 1.085-1.083h3.704Z" fill="#424750"/></svg>