<svg width="85" height="20" fill="none" xmlns="http://www.w3.org/2000/svg"><g clip-path="url('#clip0')"><path fill-rule="evenodd" clip-rule="evenodd" d="M8.581 12.872H4.086a1.225 1.225 0 0 1-1.225-1.225V8.376c0-.677.548-1.224 1.224-1.225h4.496v5.721ZM10.914 0H9.109a.529.529 0 0 0-.528.528v3.763H3.942a4.02 4.02 0 0 0-.778.076A4.142 4.142 0 0 0 0 8.391v3.202a4.14 4.14 0 0 0 4.14 4.14h2.778a.523.523 0 0 0 .375-.154v-.001l1.289-1.294v.92c0 .291.238.529.528.529h1.761a.594.594 0 0 0 .563-.4.411.411 0 0 0 .008-.09V.529A.529.529 0 0 0 10.914 0Zm14.83 12.873h-4.497a1.225 1.225 0 0 1-1.224-1.224V8.377c0-.676.549-1.225 1.225-1.225h4.496v5.721Zm2.29-8.573h-1.761a.529.529 0 0 0-.529.528v.893l-.008-.01-1.257-1.257a.609.609 0 0 0-.373-.154h-2.804a4.138 4.138 0 0 0-4.139 4.139v3.203a4.142 4.142 0 0 0 3.165 4.024c.251.05.511.076.777.076h4.64v.068c0 .227-.046.453-.155.651a1.371 1.371 0 0 1-1.205.715h-3.523c-.741 0-1.119.895-.597 1.423l1.13 1.151c.16.161.372.25.597.25h2.403c.505 0 .988-.088 1.434-.25 1.633-.591 2.775-2.168 2.775-4.02V4.79c0-.032-.002-.061-.008-.09a.594.594 0 0 0-.563-.4ZM13.4 4.292h1.804c.292 0 .528.236.528.528v10.385a.528.528 0 0 1-.528.528H13.4a.528.528 0 0 1-.529-.528V4.82c0-.292.237-.528.529-.528ZM15.205 0H13.4a.528.528 0 0 0-.529.528v1.804c0 .292.237.528.529.528h1.804a.528.528 0 0 0 .528-.528V.529a.528.528 0 0 0-.528-.528Zm15.358 4.29h1.804c.292 0 .529.237.529.529v10.385a.528.528 0 0 1-.529.528h-1.804a.528.528 0 0 1-.528-.528V4.82c0-.292.236-.528.528-.528Zm21.453 4.29a.528.528 0 0 0-.528.53v1.803c0 .292.236.529.528.529h6.095a.528.528 0 0 0 .528-.528V9.11a.528.528 0 0 0-.528-.528h-6.095ZM30.563.002h1.804c.292 0 .529.236.529.528v1.804a.528.528 0 0 1-.529.528h-1.804a.528.528 0 0 1-.528-.528V.529c0-.292.236-.528.528-.528Zm11.065 4.29h-2.779a.522.522 0 0 0-.374.154l-.001.001-1.292 1.294.004-.92a.53.53 0 0 0-.529-.529h-1.76a.594.594 0 0 0-.563.4.405.405 0 0 0-.008.09v10.535c0 .23.187.417.417.417h2.021c.23 0 .418-.187.418-.417V7.152h4.5c.676 0 1.225.548 1.225 1.225v6.939c0 .23.187.417.417.417h2.015c.23 0 .417-.187.417-.417a.55.55 0 0 0 .012-.111V8.43a4.14 4.14 0 0 0-4.14-4.14Zm36.134 0h6.092c.291 0 .528.237.528.528v1.798a.529.529 0 0 1-.528.529h-3.76v8.17c0 .23-.188.417-.418.417h-2.021a.417.417 0 0 1-.418-.417V7.152h-7.212a.529.529 0 0 0-.413.2l-2.112 2.66 3.825 4.818c.264.333.077.902-.297.902l-2.36-.003a.381.381 0 0 1-.296-.154l-2.644-3.331-2.645 3.33a.383.383 0 0 1-.296.156l-2.36.002c-.007 0-.014 0-.02-.002a.49.49 0 0 0-.013-.001h-9.098a4.096 4.096 0 0 1-4.096-4.097v-3.24a4.104 4.104 0 0 1 4.098-4.098h6.812c.292 0 .529.237.529.529v1.796a.529.529 0 0 1-.529.529h-6.813c-.686 0-1.243.557-1.243 1.244v3.24c0 .683.56 1.243 1.243 1.243h10.385l2.274-2.864-3.825-4.818c-.265-.332-.077-.902.296-.902h2.358c.11 0 .218.056.296.155l2.647 3.334 2.646-3.334c.08-.099.186-.155.297-.155h6.899a.522.522 0 0 1 .374.154v.001l1.293 1.294-.004-.92a.53.53 0 0 1 .529-.529Z" fill="#424750"/></g><defs><clipPath id="clip0"><path fill="#fff" d="M0 0h84.382v20H0z"/></clipPath></defs></svg>