<svg width="55" height="54" fill="none" xmlns="http://www.w3.org/2000/svg"><path fill-rule="evenodd" clip-rule="evenodd" d="m29.95 13.5 16.11 5.035v7.884l-5.33 1.735V20.66l-16.772-5.346L29.95 13.5Z" fill="#E6123D"/><path d="m30.716 13.48 16.214 5.181c.35.112.587.437.587.804v6.841a.844.844 0 0 1-.562.796l-1.585.56a.844.844 0 1 1-.562-1.591l1.022-.361V20.08l-18.056-5.769c-.774-.247-.786-1.338-.017-1.602l5.94-2.033a.844.844 0 0 1 .528-.007l18.9 5.964c.35.111.59.437.59.805v20.575a.844.844 0 0 1-.59.805l-18.9 5.978a.844.844 0 0 1-.511 0l-18.665-5.98a.844.844 0 0 1-.586-.803V35.23a.844.844 0 1 1 1.687 0v2.17l17.822 5.709 18.055-5.712V18.057l-18.045-5.694-3.266 1.118Z" fill="#424750"/><path d="M52.616 16.745a.844.844 0 1 1 .51 1.61l-18.9 5.978a.843.843 0 0 1-.51 0l-14.424-4.587a.844.844 0 1 1 .511-1.608l14.168 4.506 18.645-5.898Z" fill="#424750"/><path d="M42.392 26.82a.844.844 0 0 1 .53 1.602l-2.081.687a.844.844 0 0 1-1.109-.802v-6.225l-18.055-5.769c-.779-.248-.785-1.348-.009-1.604l7.088-2.348a.844.844 0 0 1 .53 1.602l-4.625 1.532 16.172 5.168c.35.111.587.436.587.803v5.674l.972-.32Z" fill="#424750"/><path d="M16.145 18.205v4.066a.844.844 0 0 1-1.687 0v-4.686c0-.368.24-.694.591-.805l6.704-2.105a.844.844 0 0 1 .505 1.61l-6.113 1.92Z" fill="#424750"/><path d="M23.271 24.131a.844.844 0 1 1 0 1.688H8.096a.844.844 0 0 1 0-1.688H23.27ZM14.834 27.844a.844.844 0 0 1 0 1.687H1.684a.844.844 0 1 1 0-1.687h13.15Z" fill="#19BFD3"/><circle cx="5.564" cy="24.975" r=".844" fill="#19BFD3"/><circle cx="7.927" cy="32.4" r=".844" fill="#19BFD3"/><path d="M18.884 31.556a.844.844 0 0 1 0 1.688h-8.426a.844.844 0 1 1 0-1.688h8.426ZM27.322 9.281a.844.844 0 1 1 0 1.688H14.17a.844.844 0 0 1 0-1.688h13.15ZM14.16 13.331a.844.844 0 0 1 0 1.688H7.757a.844.844 0 1 1 0-1.688h6.401Z" fill="#19BFD3"/><path d="M34.927 43.917a.844.844 0 0 1-1.688 0v-4.173a.844.844 0 0 1 1.688 0v4.173ZM34.927 36.353a.844.844 0 0 1-1.688 0V24.3a.844.844 0 0 1 1.688 0v12.053Z" fill="#424750"/></svg>