<svg width="136" height="36" fill="none" xmlns="http://www.w3.org/2000/svg"><path fill-rule="evenodd" clip-rule="evenodd" d="M112.005 13c-.582 0-1 .418-1 1v7c0 1.363-.637 2-2 2h-8.998v-7.5c0-4.235-3.264-7.5-7.499-7.5H86.01c-.606 0-1.635.017-2 .5l-2 3c-.384.51-.138 1.5.5 1.5h9.998c1.363 0 2.5 1.137 2.5 2.5V23H74.012c-.583 0-1 .418-1 1v3c0 .583.417 1 1 1h4c0 1.363-1.638 3-3 3h-8.999c-1.362 0-2-.637-2-2V19c0-.582-.417-1-.999-1h-3c-.581 0-1 .418-1 1v10c0 4.5 2.5 7 7 7h8.998c4.234 0 7.998-3.765 7.998-8h15.997c.581 0 1-.42 1-1v-1l1.091 1.39c.365.482.803.61 1.408.61h6.499c4.235 0 6.999-2.765 6.999-7v-7c0-.582-.418-1-1-1h-2.999Zm-6.999 18c-.582 0-1 .418-1 1v3c0 .583.418 1 1 1h7.998c.583 0 1-.417 1-1v-3c0-.582-.417-1-1-1h-7.998Zm-17.997 0c-.582 0-1 .418-1 1v3c0 .583.418 1 1 1h3.5c.582 0 1-.417 1-1v-3c0-.582-.418-1-1-1h-3.5Zm32.994-23c-.582 0-1 .418-1 1v3c0 .582.418 1 1 1h8.998c1.363 0 2 .637 2 2v6c0 1.363-.637 2-2 2h-8.998c-.582 0-1 .418-1 1v3c0 .582.418 1 1 1h8.998c4.235 0 6.999-2.765 6.999-7v-6c0-4.235-2.764-7-6.999-7h-8.998ZM42.518 8l5.048-6.505A.913.913 0 0 0 46.863 0h-3.841c-.612 0-1.192.273-1.582.745L33.02 11.5c-.574.694-.4 1.5.5 1.5h11.497c2.862 0 5 2.138 5 5v5H30.02c-1.282 0-2-.655-2-2V5c0-.582-.417-1-1-1h-2.998c-.582 0-1 .418-1 1v16c0 4.5 3.499 7 7.998 7h22.996c.58 0 1-.42 1-1v-9c0-5.734-4.265-10-9.998-10h-2.5ZM16.023 4c-.582 0-1 .418-1 1v16c0 1.363-.636 2-2 2H2.027c-.582 0-1 .418-1 1v3c0 .582.418 1 1 1h10.998c4.499 0 6.998-2.5 6.998-7V5c0-.582-.418-1-1-1h-2.999ZM3.843 18.729.026 5c-.157-.557.421-1 1-1h2.658c.531 0 1.112.23 1.256.742l4.1 13.89c.157.554-.197.98-.772.98h-3.26a1.21 1.21 0 0 1-1.165-.883Z" fill="#EF394E"/></svg>