<svg width="52" height="16" fill="none" xmlns="http://www.w3.org/2000/svg"><path fill-rule="evenodd" clip-rule="evenodd" d="M47.51 1.08a1.1 1.1 0 0 1-1.101 1.1 1.1 1.1 0 0 1-1.093-1.08A1.095 1.095 0 0 1 46.417 0c.599.002 1.085.482 1.093 1.08Zm-.944 9.881c-1.686.037-3.086-1.379-3.11-3.024-.025-1.721 1.415-3.093 3.014-3.125 1.657-.033 3.114 1.342 3.14 3.03.027 1.669-1.36 3.12-3.044 3.12Zm4.556-4c-.453-2.182-2.336-3.796-4.715-3.752a4.48 4.48 0 0 0-2.838 1.05c-1.195.992-1.755 2.286-1.714 3.815a4.4 4.4 0 0 0 .935 2.638c.01.013.023.026.035.04.048.05.1.104.075.208h-.336c-.254.002-.51.002-.764 0-.114-.003-.228 0-.343.001-.254.004-.51.008-.763-.026l-.021-.005c-.026-.031-.054-.06-.1-.06-.196-.205-.194-.46-.193-.714v-.075l-.008-2.74-.01-3.184c0-.13-.003-.262-.03-.387a.809.809 0 0 0-1.01-.594c-.405.121-.606.412-.607.884l-.006 3.843v.001l-.004 2.171c0 .753-.174.91-.961.886-.279-.008-.414-.136-.477-.406a1.692 1.692 0 0 1-.042-.386 508.923 508.923 0 0 0-.005-2.334c0-.149.001-.299-.035-.446-.177-1.712-1.049-2.957-2.552-3.765-.745-.4-1.553-.547-2.395-.546-3.06.001-6.12 0-9.18 0h-4.681l-.059-.001a.447.447 0 0 0-.208.025.964.964 0 0 1-.036.007c-.027.004-.053.008-.078.017-.413.15-.627.512-.55.932.07.378.393.635.812.64.148 0 11.261.007 13.976-.004.786-.003 1.496.195 2.126.665 1.422 1.057 1.692 3.047.482 4.4-.665.744-1.507 1.11-2.517 1.108l-14.067-.02c-.482-.005-.85.34-.863.801-.011.454.355.827.83.837.1.002 5.003 0 9.42 0h.007c1.743-.002 3.409-.002 4.673-.002.17 0 .34-.002.509-.019.996-.1 1.893-.445 2.66-1.102.081.068.07.153.059.236a.525.525 0 0 0-.008.101c.023.371.137.683.496.856.158.075.325.088.496.088h.335c.894-.002 1.788-.003 2.682 0 1.23.002 2.46-.008 3.69-.018l1.183-.009c.359-.002.718-.01 1.076-.02a60.53 60.53 0 0 1 1.103-.02c.099 0 .788-.097 1.03-.15 2.491-.537 3.976-3.111 3.486-5.466Zm-48.979.834c0-1.587 1.39-3.107 3.068-3.06 1.69-.057 3.093 1.468 3.088 3.07-.005 1.628-1.424 3.069-3.068 3.073-1.658.005-3.088-1.444-3.088-3.083Zm13.858-3.974a.82.82 0 0 0-1.182-.65c-.332.164-.46.448-.46.808-.002.397-.006.795-.01 1.192-.004.59-.01 1.18-.008 1.77.001.325 0 .649-.002.973-.003.734-.007 1.468.017 2.202.02.591-.24.813-.832.746-.045-.005-.09-.017-.134-.029a5.777 5.777 0 0 0-.04-.01c-.194-.05-.305-.175-.347-.37a2.384 2.384 0 0 1-.044-.505l-.008-5.898V3.995c0-.063.001-.126-.007-.189a.822.822 0 0 0-1.166-.644c-.36.172-.476.478-.476.86 0 .701-.005 1.403-.009 2.105-.003.686-.007 1.37-.008 2.056v.303c-.001.538-.002 1.075.012 1.613.014.51-.04.613-.448.765H8.835a.69.69 0 0 0-.004-.039c-.002-.013-.002-.018 0-.021l.04-.056c.055-.08.11-.159.169-.236.516-.68.772-1.468.842-2.3.112-1.32-.247-2.524-1.147-3.508C7.462 3.315 5.88 2.84 4.04 3.278 1.687 3.838.201 6.216.606 8.566c.189 1.09.683 2.011 1.51 2.748.689.614 1.5.966 2.407 1.115.023.003.048.005.073.006.081.003.165.007.208.107l-.619.622-1.239 1.243a.2.2 0 0 0-.015.018l-.004.005a.834.834 0 0 0 .03 1.073.812.812 0 0 0 1.087.109c.082-.06.156-.133.229-.205l.015-.015.518-.514c.729-.72 1.457-1.441 2.18-2.168.138-.14.278-.2.472-.191.399.018.798.027 1.197.026a2707.928 2707.928 0 0 0 6.05-.023c.053 0 .107 0 .161.002.086.002.172.003.258 0 .56-.022.878-.352.883-.916.005-.639.01-1.277.009-1.917-.001-1.448-.004-2.897-.007-4.346l-.002-1.315v-.04c0-.057 0-.114-.006-.17Zm-2.299 10.713c.34-.64.793-.891 1.326-.756.501.127.848.562.848 1.063-.001.502-.363.955-.85 1.062-.57.126-.997-.12-1.33-.78-.134.33-.328.595-.664.728a1.104 1.104 0 0 1-.703.043 1.108 1.108 0 0 1-.806-1.067 1.1 1.1 0 0 1 .833-1.045c.54-.143.974.096 1.346.752Zm25.687-.729c-.564-.124-1.021.133-1.324.764-.378-.659-.802-.89-1.356-.76a1.09 1.09 0 0 0-.819.99c-.025.515.265.947.742 1.107.236.079.47.077.705-.005.347-.121.568-.375.702-.734.402.683.846.914 1.393.752.501-.148.808-.577.789-1.102a1.087 1.087 0 0 0-.832-1.011Zm-29.927-.06a1.088 1.088 0 0 0-1.075 1.093 1.09 1.09 0 0 0 1.101 1.098 1.09 1.09 0 0 0 1.076-1.095 1.088 1.088 0 0 0-1.102-1.096Zm23.024-5.567c.116.003.232.006.337-.073.19-.144.246-.332.204-.555a.493.493 0 0 0-.418-.378 1.62 1.62 0 0 0-.252-.01l-.077.001h-12.4l-.066-.002a.832.832 0 0 0-.143.003c-.177.025-.242-.054-.275-.223A3.626 3.626 0 0 0 19 5.9c-.029-.047-.06-.096-.038-.165.065-.046.14-.042.215-.037l.067.003h3.876c3.12.002 6.242.003 9.363-.009.955-.003 1.849.636 2.02 1.68a1.976 1.976 0 0 1-1.268 2.172 2.02 2.02 0 0 1-.732.127l-9.477-.001h-3.702c-.053 0-.107-.004-.164-.007l-.088-.005a.685.685 0 0 1 .074-.252 3.804 3.804 0 0 0 .29-.951c.038-.274.046-.274.312-.277h1.745l10.928-.001h.066Z" fill="#424750"/></svg>