<svg width="71" height="17" fill="none" xmlns="http://www.w3.org/2000/svg"><g clip-path="url('#clip0_3913_7701')" fill="#424750"><path d="M42.81 12.43V.31l.985-.004c.337 0 .661.135.9.375.239.241.373.567.373.908v13.423c0 .34-.134.666-.373.907-.239.24-.563.376-.9.376h-.985v-.017L33.79 4.16v12.144h-.985c-.337 0-.661-.135-.9-.375a1.288 1.288 0 0 1-.373-.908V1.594c0-.34.134-.667.373-.907s.563-.376.9-.376h.985L42.81 12.43ZM8.03 7.182h4.23a1.263 1.263 0 0 1 .902.371 1.284 1.284 0 0 1 .377.906v6.565c0 .34-.134.666-.373.907-.239.24-.563.376-.9.376H1.273c-.338 0-.661-.136-.9-.376A1.288 1.288 0 0 1 0 15.024V1.627c0-.34.134-.666.373-.907.239-.24.562-.376.9-.376H12.24c.334 0 .655.132.893.368s.375.557.38.894l.013 1.018H2.251v11.398h9.016v-4.56h-4.51v-.998c0-.34.135-.667.374-.907.238-.241.562-.376.9-.376ZM68.989.377h-6.932a1.27 1.27 0 0 0-.898.378 1.29 1.29 0 0 0-.371.905v12.326h-.005v1c0 .34.134.666.373.906.239.241.563.376.9.376h6.928c.338 0 .661-.135.9-.376.24-.24.372-.567.372-.907v-.998h-7.245V2.659h7.25V1.66c0-.34-.133-.666-.373-.907a1.268 1.268 0 0 0-.9-.376ZM57.358.345H53.15a1.263 1.263 0 0 0-.906.382 1.285 1.285 0 0 0-.367.918l.017.98h4.47v11.393H48.62c-.338 0-.661.136-.9.376s-.373.567-.373.908v.998h10.008c.338 0 .661-.135.9-.376.24-.24.373-.566.373-.907V1.627c0-.34-.135-.666-.373-.906a1.265 1.265 0 0 0-.898-.376ZM17.02.345h10.987c.336 0 .659.134.897.373s.374.563.376.902v13.393c0 .34-.134.667-.373.907s-.563.376-.9.376h-.983V2.655h-9.02v13.647h-.984c-.337 0-.661-.135-.9-.375a1.288 1.288 0 0 1-.373-.908V1.63c0-.341.135-.667.373-.908.239-.24.563-.376.9-.376Z"/><path d="M70.257 7.182h-4.982v2.28h4.982v-2.28Z"/></g><defs><clipPath id="clip0_3913_7701"><path fill="#fff" transform="translate(0 .307)" d="M0 0h70.261v16H0z"/></clipPath></defs></svg>