<svg width="151" height="44" fill="none" xmlns="http://www.w3.org/2000/svg"><rect x="1" y=".5" width="149" height="43" rx="3.5" fill="#fff" stroke="#E0E0E0"/><path fill-rule="evenodd" clip-rule="evenodd" d="M17.963 9.398c-.291.307-.463.785-.463 1.405v22.115c0 .62.172 1.097.463 1.405l.073.073 12.39-12.39v-.292l-12.39-12.39-.073.074Z" fill="url('#paint0_linear')"/><path fill-rule="evenodd" clip-rule="evenodd" d="M17.963 9.398c-.291.307-.463.785-.463 1.405v22.115c0 .62.172 1.097.463 1.405l.073.073 12.39-12.39v-.292l-12.39-12.39-.073.074Z" fill="url('#paint1_linear')"/><path fill-rule="evenodd" clip-rule="evenodd" d="M30.426 21.714v.293l4.129 4.13.095-.051 4.892-2.782c1.398-.793 1.398-2.093 0-2.887l-4.892-2.78-.094-.053-4.13 4.13Z" fill="#FFD200"/><path fill-rule="evenodd" clip-rule="evenodd" d="M30.426 21.714v.293l4.129 4.13.095-.051 4.892-2.782c1.398-.793 1.398-2.093 0-2.887l-4.892-2.78-.094-.053-4.13 4.13Z" fill="url('#paint2_linear')"/><path fill-rule="evenodd" clip-rule="evenodd" d="M17.963 34.323c.24.255.563.393.938.398h.042c.333-.005.705-.113 1.098-.336l14.609-8.3-4.224-4.224-12.463 12.462Z" fill="url('#paint3_linear')"/><path fill-rule="evenodd" clip-rule="evenodd" d="M17.963 9.398 30.426 21.86l4.224-4.225-14.609-8.3C19.639 9.108 19.258 9 18.92 9c-.383 0-.713.139-.957.398Z" fill="#00F076"/><path fill-rule="evenodd" clip-rule="evenodd" d="M17.963 9.398 30.426 21.86l4.224-4.225-14.609-8.3C19.639 9.108 19.258 9 18.92 9c-.383 0-.713.139-.957.398Z" fill="url('#paint4_linear')"/><path fill-rule="evenodd" clip-rule="evenodd" d="M113.395 32.234h1.865v-12.5h-1.865v12.5Zm16.806-7.998-2.138 5.42h-.065l-2.219-5.42h-2.01l3.329 7.575-1.898 4.214h1.946l5.131-11.789h-2.076Zm-10.583 6.578c-.61 0-1.462-.306-1.462-1.062 0-.964 1.061-1.335 1.978-1.335.819 0 1.206.178 1.704.418a2.26 2.26 0 0 1-2.22 1.98Zm.226-6.852c-1.351 0-2.75.596-3.329 1.914l1.656.692c.355-.692 1.014-.917 1.705-.917.965 0 1.947.58 1.962 1.608v.13c-.338-.194-1.061-.483-1.946-.483-1.785 0-3.603.981-3.603 2.814 0 1.673 1.464 2.751 3.105 2.751 1.254 0 1.946-.563 2.38-1.223h.064v.965h1.802V27.42c0-2.219-1.657-3.458-3.796-3.458Zm-11.531 1.796h-2.655v-4.285h2.655c1.394 0 2.186 1.154 2.186 2.142 0 .97-.792 2.143-2.186 2.143Zm-.049-6.026h-4.471v12.502h1.865v-4.736h2.606c2.068 0 4.102-1.497 4.102-3.883 0-2.385-2.034-3.883-4.102-3.883ZM83.883 30.816c-1.289 0-2.368-1.079-2.368-2.56 0-1.5 1.079-2.595 2.368-2.595 1.273 0 2.272 1.095 2.272 2.594 0 1.482-.999 2.561-2.272 2.561Zm2.143-5.88h-.065c-.419-.499-1.224-.95-2.239-.95-2.127 0-4.076 1.87-4.076 4.27 0 2.383 1.949 4.236 4.076 4.236 1.015 0 1.82-.45 2.239-.967h.065v.612c0 1.628-.87 2.497-2.272 2.497-1.143 0-1.852-.82-2.142-1.514l-1.627.677c.466 1.127 1.707 2.513 3.769 2.513 2.192 0 4.044-1.289 4.044-4.43v-7.637h-1.772v.693Zm3.061 7.298h1.868v-12.5h-1.868v12.5Zm4.623-4.124c-.048-1.644 1.274-2.48 2.224-2.48.741 0 1.369.37 1.579.901l-3.803 1.58Zm5.8-1.418c-.354-.95-1.434-2.707-3.641-2.707-2.191 0-4.011 1.724-4.011 4.254 0 2.384 1.804 4.253 4.22 4.253 1.95 0 3.078-1.192 3.545-1.885l-1.45-.967c-.483.71-1.143 1.176-2.095 1.176-.95 0-1.627-.435-2.061-1.289l5.686-2.352-.193-.483Zm-45.308-1.4v1.803h4.318c-.129 1.015-.467 1.756-.983 2.271-.629.63-1.611 1.322-3.335 1.322-2.658 0-4.736-2.143-4.736-4.8 0-2.659 2.078-4.803 4.736-4.803 1.434 0 2.481.564 3.254 1.29l1.273-1.273c-1.079-1.03-2.513-1.82-4.527-1.82-3.641 0-6.702 2.964-6.702 6.605 0 3.64 3.061 6.605 6.702 6.605 1.965 0 3.448-.645 4.607-1.853 1.193-1.192 1.563-2.867 1.563-4.22 0-.419-.032-.806-.096-1.128h-6.074Zm11.079 5.524c-1.289 0-2.401-1.063-2.401-2.577 0-1.53 1.112-2.578 2.401-2.578 1.289 0 2.4 1.047 2.4 2.578 0 1.514-1.111 2.577-2.4 2.577Zm0-6.83c-2.352 0-4.269 1.788-4.269 4.253 0 2.45 1.917 4.253 4.269 4.253 2.352 0 4.269-1.804 4.269-4.253 0-2.465-1.917-4.254-4.269-4.254Zm9.313 6.83c-1.289 0-2.4-1.063-2.4-2.577 0-1.53 1.111-2.578 2.4-2.578s2.4 1.047 2.4 2.578c0 1.514-1.111 2.577-2.4 2.577Zm0-6.83c-2.352 0-4.269 1.788-4.269 4.253 0 2.45 1.917 4.253 4.269 4.253 2.353 0 4.27-1.804 4.27-4.253 0-2.465-1.917-4.254-4.27-4.254ZM104.081 8.895h-1.023V15h1.023V8.895ZM121.087 15h-.429c-.191 0-.37-.026-.539-.077a1.107 1.107 0 0 1-.445-.258 1.284 1.284 0 0 1-.308-.473 2 2 0 0 1-.116-.732V8.895h1.023v4.323c0 .213.048.38.143.5.095.121.246.182.451.182h.22c-.029 0-.055.031-.077.093-.022.063-.033.222-.033.479l.001.11c.003.171.014.281.032.33.022.059.048.088.077.088Zm0 0h2.376c.513 0 .909-.141 1.188-.424.279-.282.418-.698.418-1.248v-1.254h-1.012v1.177c0 .433-.224.649-.671.649h-2.299V15Zm10.67-2.497c.183.205.317.41.402.616.084.205.126.403.126.594 0 .36-.128.664-.385.913-.257.25-.634.374-1.133.374h-2.662l-.055-1.1h2.552c.33 0 .495-.125.495-.374 0-.1-.038-.197-.113-.292l-1.768-2.007.803-.748 1.738 2.024Zm-7.194 3.817h.132c.279 0 .517-.042.715-.127.198-.084.361-.194.49-.33.128-.135.221-.293.28-.473.059-.18.088-.364.088-.555v-2.761h1.012v2.761a2.72 2.72 0 0 1-.693 1.831 2.36 2.36 0 0 1-.764.55 2.266 2.266 0 0 1-.952.204h-.253l-.055-1.1Zm-.77.792h-1.023v-.979h1.023v.979Zm-2.475 0h1.034v-.979h-1.034v.979Zm-7.535-2.64.001.11c.003.171.014.281.032.33.022.059.048.088.077.088h-.242c-.242 0-.469-.04-.682-.121-.213-.08-.396-.25-.55-.506-.161.257-.339.425-.533.506a1.61 1.61 0 0 1-.622.121h-3.366c-.279 0-.515-.042-.709-.127a1.293 1.293 0 0 1-.473-.335 1.361 1.361 0 0 1-.27-.49 1.944 1.944 0 0 1-.088-.588v-1.43h1.012v1.166c0 .22.05.392.149.517.099.125.298.187.599.187h3.146c.447 0 .671-.216.671-.649v-1.177h1.023v1.177c0 .235.073.402.22.5a.903.903 0 0 0 .517.149h.198c-.029 0-.055.031-.077.093-.022.063-.033.222-.033.479Zm2.365.528h-2.255v-1.1h.902c.11 0 .205.002.286.005l.117.007.109.01a2.273 2.273 0 0 1 .423.077 2.74 2.74 0 0 1-.561-.314 1.19 1.19 0 0 1-.319-.351 1.185 1.185 0 0 1-.143-.418 3.473 3.473 0 0 1-.033-.501c0-.183.035-.37.105-.561.069-.19.174-.363.313-.517.139-.154.312-.28.517-.38.205-.099.447-.148.726-.148.257 0 .491.033.704.099.213.066.396.176.55.33.154.154.273.357.358.61.084.253.126.563.126.93v.506c0 .535-.154.955-.462 1.26-.308.304-.796.456-1.463.456Zm.165-3.091c-.242 0-.42.075-.533.225a.779.779 0 0 0-.171.479c0 .088.011.174.033.258a.59.59 0 0 0 .165.259c.088.088.22.181.396.28.176.1.414.211.715.336a.632.632 0 0 0 .132-.27c.029-.113.044-.229.044-.346v-.264c0-.279-.055-.508-.165-.688-.11-.18-.315-.269-.616-.269Zm-.539-1.925h1.122V8.972h-1.122v1.012Zm-5.929 1.276h1.045v-.979h-1.045v.979Zm-.385 0h-1.045v-.979h1.045v.979Zm-7.414 3.575a2.72 2.72 0 0 1-.693 1.831 2.36 2.36 0 0 1-.764.55 2.264 2.264 0 0 1-.952.204h-.627l-.055-1.1h.429c.293 0 .544-.042.754-.127.209-.084.379-.194.511-.33.132-.135.229-.293.292-.473.062-.18.093-.364.093-.555v-2.761h1.012v2.761Zm-1.111-3.927h1.122V9.896h-1.122v1.012Z" fill="#000"/><defs><linearGradient id="paint0_linear" x1="17.5" y1="9.325" x2="17.5" y2="34.396" gradientUnits="userSpaceOnUse"><stop stop-color="#fff"/><stop offset="1"/></linearGradient><linearGradient id="paint1_linear" x1="16.9" y1="4.767" x2="2.474" y2="21.227" gradientUnits="userSpaceOnUse"><stop stop-color="#00C3FF"/><stop offset="1" stop-color="#06E1FF"/></linearGradient><linearGradient id="paint2_linear" x1="30.426" y1="26.138" x2="40.59" y2="26.138" gradientUnits="userSpaceOnUse"><stop stop-color="#FEBD00"/><stop offset="1" stop-color="#FFDB00"/></linearGradient><linearGradient id="paint3_linear" x1="17.589" y1="15.386" x2="1.663" y2="42.202" gradientUnits="userSpaceOnUse"><stop stop-color="#FF3A44"/><stop offset="1" stop-color="#C31162"/></linearGradient><linearGradient id="paint4_linear" x1="11.672" y1="14.2" x2="19.374" y2="28.09" gradientUnits="userSpaceOnUse"><stop stop-color="#04E975"/><stop offset="1" stop-color="#00F076"/></linearGradient></defs></svg>