<svg width="66" height="16" fill="none" xmlns="http://www.w3.org/2000/svg"><path fill-rule="evenodd" clip-rule="evenodd" d="M64.86 3.34c-.034.125-.106.437-.2.844l-.224.964-1.286 6.167c-.099.455-.212.84-.353 1.181-.142.342-.325.627-.566.84-.24.229-.523.385-.876.5-.353.113-.777.17-1.3.17-.143 0-.274-.012-.416-.025l-.036-.003c-.947-.008-2.078.007-2.958.018-.657.01-1.173.016-1.366.01-.608 0-1.159-.071-1.653-.242-2.402-.726-2.784-3.703-2.02-5.81.904-2.778 3.405-4.116 6.16-3.262 1.64.499 2.515 2.008 2.487 3.731a3.085 3.085 0 0 0-.008.317c.003.459.006 1.096-.472 1.108h-6.119c-.184 1.367.466 2.335 1.964 2.307.08 0 1.226-.015 2.344-.03l2.178-.027c.17 0 .297-.057.396-.171a1.44 1.44 0 0 0 .24-.413c.056-.157.113-.328.141-.499a9.04 9.04 0 0 0 .1-.398v-.029l.324-1.552h-.014c.075-.37.147-.745.213-1.094.072-.374.138-.72.197-1l-.919.029c-.24 0-.381-.3-.212-.484l1.625-1.766c.074-.373.113-.602.148-.804.032-.184.06-.347.107-.578C62.74 2.2 63.885.52 64.224.035c.028-.057.127-.043.141.029.141.47.537 1.851.523 2.905v.071c0 .1-.014.2-.028.3Zm-7.815 3.175c-1.031-.456-2.289 0-2.812 1.025a6.99 6.99 0 0 0-.339.741h3.957c0-.67-.141-1.453-.806-1.766Z" fill="#424750"/><path d="M49.67 3.126h1.652a.395.395 0 0 0 .396-.328l.283-1.239a.41.41 0 0 0-.396-.498h-1.653a.395.395 0 0 0-.396.327l-.268 1.24a.389.389 0 0 0 .381.498ZM26.693 5.931l-2.36 2.962 2.374 2.963c.127.17.014.413-.198.413h-1.342a.327.327 0 0 1-.269-.128l-2.402-3.005v2.777a.345.345 0 0 1-.34.341h-.946a.345.345 0 0 1-.339-.341V3.496c0-.185.155-.342.34-.342h.946c.184 0 .34.157.34.342v5.113l2.387-2.963a.347.347 0 0 1 .269-.128h1.342c.212 0 .325.257.198.413ZM35.298 3.168h.947c.198 0 .34.143.34.328v8.43a.345.345 0 0 1-.34.343h-.947a.345.345 0 0 1-.339-.342V3.51c0-.185.156-.342.34-.342ZM8.111 5.532h.947c.183 0 .339.143.339.342v6.053a.345.345 0 0 1-.34.342h-.946a.345.345 0 0 1-.34-.342V5.874c0-.185.156-.342.34-.342ZM9.058 3.168H8.11a.345.345 0 0 0-.34.342v.869c0 .185.156.342.34.342h.947c.183 0 .339-.157.339-.342V3.51c0-.2-.156-.342-.34-.342ZM18.497 5.532h.947c.184 0 .339.143.339.342v6.053a.345.345 0 0 1-.34.342h-.946a.345.345 0 0 1-.34-.342V5.874c0-.185.156-.342.34-.342ZM19.444 3.168h-.947a.345.345 0 0 0-.34.342v.869c0 .185.156.342.34.342h.947c.184 0 .339-.157.339-.342V3.51c0-.2-.155-.342-.34-.342Z" fill="#424750"/><path fill-rule="evenodd" clip-rule="evenodd" d="M6.345 3.168H5.299a.345.345 0 0 0-.34.342v2.022h-2.5A2.47 2.47 0 0 0 0 8.01v1.78a2.47 2.47 0 0 0 2.459 2.479h1.667a.62.62 0 0 0 .495-.242l.353-.456v.356c0 .185.155.342.34.342h1.045c.183 0 .339-.157.339-.342V3.496a.355.355 0 0 0-.353-.328ZM4.96 10.531H2.5a.793.793 0 0 1-.791-.797v-1.68c0-.442.353-.798.791-.798H4.96v3.275ZM15.685 5.532h1.046c.197 0 .339.157.353.342v6.466a2.47 2.47 0 0 1-2.459 2.478H13.34a.601.601 0 0 1-.494-.242l-.75-.997c-.126-.157 0-.399.199-.399h2.275a.793.793 0 0 0 .791-.797v-.114h-2.515a2.47 2.47 0 0 1-2.459-2.478V8.01a2.47 2.47 0 0 1 2.459-2.479h1.667c.198 0 .382.086.495.243l.339.455v-.356c0-.185.155-.342.339-.342Zm-2.784 5.099h2.459V7.256h-2.459a.793.793 0 0 0-.791.797v1.78c0 .442.353.798.791.798ZM43.847 5.532h-3.8a2.47 2.47 0 0 0-2.46 2.478v1.78a2.47 2.47 0 0 0 2.46 2.479h1.695c.198 0 .382-.1.495-.257l.325-.441v.356c0 .185.155.342.339.342h.946c.184 0 .34-.157.34-.342V5.874c-.015-.2-.156-.342-.34-.342Zm-1.3 5.099H39.99a.793.793 0 0 1-.792-.798v-1.78c0-.441.354-.797.792-.797h2.557v3.375ZM29.646 5.532h3.801c.184 0 .34.143.34.342v6.053a.345.345 0 0 1-.34.342h-.946a.345.345 0 0 1-.34-.342v-.356l-.325.441a.614.614 0 0 1-.494.257h-1.696a2.47 2.47 0 0 1-2.459-2.478V8.01a2.47 2.47 0 0 1 2.46-2.479Zm-.042 5.099h2.557V7.256h-2.557a.793.793 0 0 0-.791.797v1.78c0 .442.353.798.79.798Z" fill="#424750"/><path d="M49.245 4.521h1.64c.254 0 .452.242.395.513L49.6 13.137a6.712 6.712 0 0 1-.382 1.268c-.155.37-.353.67-.608.897a2.56 2.56 0 0 1-.946.527c-.382.114-.834.171-1.4.171-.197 0-.409 0-.607-.028a.52.52 0 0 1-.07-.008.522.522 0 0 0-.071-.007.409.409 0 0 1-.353-.498l.254-1.197a.412.412 0 0 1 .424-.327h.099c.141.014.282.014.438.014.183 0 .325-.057.424-.185.113-.128.198-.285.268-.456a2.6 2.6 0 0 0 .156-.54c.022-.147.053-.267.08-.367l.019-.075v-.029L48.85 4.85a.398.398 0 0 1 .395-.328ZM65.948 6.53l-1.046-1.852-.509 2.492h1.187c.311.015.523-.342.368-.64Z" fill="#424750"/></svg>