<svg width="54" height="16" fill="none" xmlns="http://www.w3.org/2000/svg"><g clip-path="url('#clip0')" fill="#424750"><path d="m41.677 0-4.43 4.459c-.875.882-.255 2.39.984 2.39h9.654c1.866 0 3.378 1.522 3.378 3.4 0 1.877-1.512 3.4-3.378 3.4h-9.14c-1.865 0-3.378-1.523-3.378-3.4 0-3.204-2.58-5.8-5.762-5.8h-.198c-3.116 0-5.654 2.489-5.76 5.6h-.003c0 2.036-1.56 3.6-3.377 3.6-1.819 0-3.378-1.564-3.378-3.6h-.003c-.105-3.111-2.643-5.6-5.76-5.6h-1.39v2.4h1.39c1.866 0 3.379 1.522 3.379 3.4 0 1.877-1.513 3.4-3.378 3.4H5.365v2.4h5.762a5.74 5.74 0 0 0 4.6-2.307c1.046 1.397 2.677 2.306 4.54 2.306 1.862 0 3.493-.91 4.54-2.306a5.74 5.74 0 0 0 4.6 2.306h1.192v-2.4h-1.192c-1.866 0-3.378-1.522-3.378-3.4 0-1.877 1.512-3.4 3.378-3.4h.198c1.866 0 3.378 1.523 3.378 3.4 0 3.204 2.58 5.8 5.762 5.8h9.14c3.182 0 5.762-2.596 5.762-5.8 0-3.203-2.58-5.8-5.762-5.8H40.63l2.733-2.75L41.677 0ZM0 16.049v-14.8h2.384v14.8H0Z"/></g><defs><clipPath id="clip0"><path fill="#fff" d="M0 0h53.647v16H0z"/></clipPath></defs></svg>