<svg width="61" height="16" fill="none" xmlns="http://www.w3.org/2000/svg"><path d="M.5 11.58c0 .224.088.313.307.313h1.972c.22 0 .35-.09.35-.314L3.744 6.1l1.578 5.524c0 .045.044.09.088.18.044.045.131.09.175.09h1.84a.329.329 0 0 0 .176-.09.344.344 0 0 0 .088-.18L9.266 6.1l.613 5.48c0 .224.132.313.35.313h1.973c.22 0 .307-.09.307-.269v-.045c-.175-1.662-.307-3.323-.482-4.985-.176-1.662-.351-3.278-.482-4.985 0-.09-.044-.18-.132-.225-.088-.044-.131-.09-.22-.09H8.828c-.175 0-.307.09-.35.27L6.592 8.031 4.707 1.564c-.043-.18-.175-.27-.35-.27H1.815a.33.33 0 0 0-.22.09.347.347 0 0 0-.087.225L.5 11.579Zm22.133-8.264c0-.09 0-.18-.044-.225-.044-.045-.087-.135-.131-.18a.329.329 0 0 0-.176-.09H20.836c-.044 0-.088.046-.131.09-.044.045-.088.09-.088.18l-.132.27-.219.628c-.131-.18-.263-.359-.438-.494a1.667 1.667 0 0 0-.57-.404 1.908 1.908 0 0 0-.701-.27 4.719 4.719 0 0 0-.789-.09c-.614 0-1.227.136-1.753.36a4.18 4.18 0 0 0-1.446.988 4.297 4.297 0 0 0-.965 1.482 5.087 5.087 0 0 0-.35 1.841c0 .45.044.854.175 1.258.088.404.263.763.438 1.123.176.359.439.673.702.943.263.27.57.539.92.718.35.18.701.36 1.096.45.394.09.789.18 1.227.18.219 0 .482-.046.701-.09a2.49 2.49 0 0 0 .614-.225c.175-.09.35-.225.526-.315.175-.134.306-.27.438-.359l.088.314c.043.09.043.135.087.225s.044.135.088.18c.044.045.088.09.131.09.044.044.132.044.22.044H22.238c.088 0 .132-.045.176-.09.044-.044.131-.09.131-.18.044-.089.044-.134.044-.224V3.316h.044Zm-6.706 3.188c.088-.27.22-.539.395-.718.175-.225.394-.36.657-.494.263-.135.526-.18.833-.18.307 0 .613.045.877.18.262.134.482.27.7.494.176.224.351.449.483.718.131.27.175.584.175.854 0 .314-.044.583-.175.898-.132.27-.263.494-.482.718-.176.18-.439.36-.701.494-.264.135-.57.18-.877.18-.307 0-.57-.045-.833-.18a2.314 2.314 0 0 1-.657-.494c-.175-.18-.307-.449-.395-.718a2.963 2.963 0 0 1-.131-.898c-.044-.315.044-.584.131-.854Zm14.42 5.614a1.2 1.2 0 0 1-.526.404c-.176.09-.395.18-.614.27-.22.045-.438.09-.657.09h-.439c-.175 0-.306-.045-.482-.09a2.104 2.104 0 0 1-.482-.18l-.394-.27a.529.529 0 0 0-.395-.18c-.044 0-.131 0-.175.046-.044.045-.131.09-.175.18l-.658.943a.728.728 0 0 0-.131.359c0 .09.044.18.087.27.044.09.088.134.176.179.219.18.438.36.701.494.263.135.526.27.833.36.263.09.57.179.876.224.307.045.57.09.79.09.657 0 1.226-.09 1.796-.315.57-.224 1.052-.494 1.446-.898.395-.404.745-.898.965-1.482.219-.584.35-1.258.35-1.976v-7.32c0-.09 0-.18-.044-.225-.043-.045-.087-.135-.131-.18a.33.33 0 0 0-.175-.09c-.044-.044-.132-.044-.176-.044h-1.052c-.087 0-.175 0-.219.045-.044.045-.087.045-.131.09-.044.044-.088.09-.088.18-.044.044-.044.134-.087.224l-.176.628a4.876 4.876 0 0 0-.438-.494c-.175-.134-.35-.314-.526-.404a1.465 1.465 0 0 0-.657-.27 3.84 3.84 0 0 0-.79-.09c-.613 0-1.183.136-1.752.36a4.448 4.448 0 0 0-1.403.988 4.205 4.205 0 0 0-.92 1.482c-.22.584-.307 1.168-.307 1.842 0 .673.088 1.257.307 1.796.219.539.526 1.033.92 1.392.395.404.833.719 1.403.898.526.225 1.095.315 1.753.315.263 0 .526-.045.745-.09.219-.09.394-.18.57-.27.175-.09.306-.224.482-.359.131-.135.263-.27.394-.449v.629c0 .134-.044.224-.044.314-.087.225-.175.404-.35.584ZM26.84 6.459c.088-.27.22-.494.395-.718.175-.225.394-.36.657-.494.263-.135.526-.18.833-.18.307 0 .57.045.833.18.263.134.482.27.7.449.176.18.352.404.483.674.131.269.175.538.22.808v.224c0 .315-.088.584-.22.854-.131.27-.263.494-.482.673-.175.18-.438.36-.701.45-.263.09-.526.18-.833.18-.307 0-.57-.046-.833-.18a3.431 3.431 0 0 1-.657-.45c-.175-.18-.307-.449-.395-.718a2.96 2.96 0 0 1-.131-.898c0-.27.044-.584.131-.854Zm8.328-3.503a.347.347 0 0 0-.176.18c-.043.09-.043.18-.043.27v7.948c0 .18.043.315.131.405.088.09.22.134.438.134H37.271a.329.329 0 0 0 .176-.09c.043-.044.087-.09.131-.179.044-.09.044-.18.044-.225V6.774c0-.225.088-.404.175-.584.088-.18.22-.36.35-.494.132-.135.308-.225.483-.315s.35-.134.526-.134c.175 0 .394.045.57.134.175.09.35.18.482.315.131.135.263.314.35.494.088.18.132.36.132.584v4.625c0 .18.044.315.131.405.088.09.22.09.395.09h1.621c.176 0 .307-.045.351-.135.088-.09.132-.225.132-.405v-4.67a5.57 5.57 0 0 0-.22-1.527 3.12 3.12 0 0 0-.657-1.258 3.855 3.855 0 0 0-1.052-.853c-.394-.224-.876-.314-1.402-.314-.35 0-.702.045-1.008.135-.307.09-.57.18-.79.314-.218.135-.438.27-.569.404-.175.135-.263.314-.35.45l-.132-.63c-.044-.09-.044-.134-.088-.224-.044-.045-.044-.135-.087-.18l-.132-.134c-.044-.045-.131-.045-.219-.045h-1.227c-.132.045-.175.09-.22.134Zm17.4 7.635c.043-.09.087-.135.087-.224v-.135c0-.045-.044-.09-.088-.18l-.745-.853a.773.773 0 0 0-.219-.18c-.044-.045-.132-.045-.175-.045-.044 0-.132 0-.176.045-.044.045-.131.09-.175.135-.088.09-.175.18-.35.225-.132.09-.307.134-.439.224l-.526.135c-.175.045-.35.045-.526.045a2.51 2.51 0 0 1-.57-.09 1.344 1.344 0 0 1-.57-.27c-.174-.134-.35-.269-.481-.494a1.954 1.954 0 0 1-.263-.763h4.996c.307 0 .526 0 .657-.045.132-.045.263-.09.307-.18a.863.863 0 0 0 .088-.359v-.584c0-.539-.044-.673-.175-1.123-.088-.359-.263-.673-.439-.988-.175-.314-.438-.583-.7-.853a4.18 4.18 0 0 0-.877-.673c-.307-.18-.658-.315-1.009-.45a4.667 4.667 0 0 0-1.139-.134c-.438 0-.833.045-1.183.18-.395.134-.745.269-1.052.493-.307.225-.614.45-.877.719-.263.27-.482.584-.657.943-.175.36-.307.719-.439 1.078a5.71 5.71 0 0 0-.13 1.212c0 .674.13 1.303.394 1.842.263.584.57 1.078 1.008 1.482.438.404.92.763 1.49.988.57.224 1.183.36 1.797.36.57 0 1.095-.09 1.621-.315s.964-.494 1.359-.899c.044-.134.131-.18.175-.269Zm-2.893-5.614c.175.045.35.18.482.27l.394.404c.132.135.22.314.307.494h-3.55c.087-.18.175-.314.307-.494.131-.135.263-.314.394-.404.132-.135.307-.225.482-.315s.35-.09.526-.09c.263 0 .482.045.658.135Zm5.916-2.155h-1.534c-.35 0-.526.18-.526.539v1.392c0 .404.176.584.526.584h1.534v6.018c0 .359.176.538.526.538h1.578a.728.728 0 0 0 .438-.134c.088-.09.132-.225.132-.405V5.337h1.753a.49.49 0 0 0 .35-.135c.088-.09.132-.225.132-.45V3.362c0-.18-.044-.315-.132-.405a.49.49 0 0 0-.35-.134h-1.753V.846a.914.914 0 0 0-.088-.405c-.044-.09-.175-.134-.35-.134h-.132L56.117.89a.842.842 0 0 0-.394.225.412.412 0 0 0-.132.314v1.393Z" fill="#424750"/></svg>