<svg width="54" height="16" fill="none" xmlns="http://www.w3.org/2000/svg"><g clip-path="url('#clip0_4_3637')" fill="#424750"><path d="M53.286.067C53.042.034 52.799 0 52.556 0c-.522 0-.904.1-1.148.268-.243.202-.382.504-.382.94v6.71c0 .838-.244 1.442-.73 1.844-.487.403-1.148.604-1.982.604-.626 0-1.182-.067-1.67-.234a11.644 11.644 0 0 1-1.25-.504V.235c-.105-.034-.279-.1-.487-.134h-.035a4.493 4.493 0 0 0-.73-.067c-.522 0-.904.1-1.148.268-.243.201-.382.503-.382.94V7.95c0 .839-.244 1.442-.73 1.845-.487.403-1.148.604-1.982.604-.626 0-1.182-.067-1.669-.235a11.648 11.648 0 0 1-1.252-.503v-6.14h-.034V3.49c-.14-.067-.313-.1-.522-.134a5.368 5.368 0 0 0-.73-.067c-.521 0-.904.1-1.147.268-.244.201-.383.503-.383.94v3.421c0 .839-.243 1.443-.73 1.845-.487.403-1.982.37-1.982.37l-7.649-.034c-.521 0-.904-.1-1.147-.336-.243-.234-.452-.57-.626-1.073L18.726.067c-.139 0-.313 0-.556.034-.243.033-.487.1-.73.2-.487.169-.8.404-.974.638-.174.269-.174.604 0 1.007l2.33 5.971v.034c.348.906-.383 1.845-1.39 1.845h-5.147c-.07.134-.104.302-.139.503-.034.202-.07.436-.07.705 0 .503.105.872.279 1.107.208.235.521.369.973.369h5.18c1.496 0 2.33-.872 2.643-1.376.383.57.765.94 1.182 1.175.383.2.974.268 1.46.268l8.171-.034c1.426-.067 2.538-.402 3.407-1.04.487.269 1.078.504 1.808.705.8.235 1.704.369 2.712.369 1.669 0 2.99-.369 3.964-1.04.452.235 1.043.47 1.738.704.8.235 1.704.37 2.712.37 1.704 0 3.06-.37 4.033-1.108.974-.738 1.46-1.878 1.46-3.388V.268c-.07-.1-.243-.167-.486-.2ZM12.224 6.173c0-.94-.139-1.778-.452-2.516a5.523 5.523 0 0 0-1.217-1.912c-.521-.537-1.182-.94-1.912-1.242C7.878.201 7.08.067 6.175.067c-.904 0-1.739.134-2.469.436a5.731 5.731 0 0 0-1.912 1.208A5.522 5.522 0 0 0 .577 3.623a7.421 7.421 0 0 0-.452 2.55c0 .94.14 1.778.452 2.55.278.771.695 1.409 1.217 1.912.521.537 1.147.94 1.912 1.207.73.269 1.53.403 2.4.437l-1.218 1.375c-.243.336-.347.637-.278.906.07.268.313.537.66.839.21.134.383.268.592.369.208.1.347.167.486.2l4.764-5.87c.278-.403.556-.839.73-1.342a8.94 8.94 0 0 0 .382-2.583ZM8.608 9.125c-.59.705-1.39 1.04-2.468 1.04-1.043 0-1.878-.335-2.469-1.04-.59-.704-.869-1.677-.869-2.986 0-1.274.313-2.28.904-2.985.591-.705 1.39-1.074 2.434-1.074 1.043 0 1.843.37 2.434 1.074.59.704.869 1.71.869 2.985.035 1.309-.244 2.282-.835 2.986Z"/><path d="m34.824 2.113.417.403c.104.1.243.134.383.134.139 0 .278-.033.382-.134l.417-.403.417-.402c.105-.1.14-.235.14-.37a.494.494 0 0 0-.14-.368L36.423.57l-.417-.402a.534.534 0 0 0-.383-.135.534.534 0 0 0-.382.135l-.417.402-.417.403a.494.494 0 0 0-.14.369c0 .134.035.268.14.369l.417.402ZM44.385 13.688l-.417-.403a.534.534 0 0 0-.383-.134.534.534 0 0 0-.382.134l-.418.403-.417.402c-.035.034-.035.067-.07.1-.034-.033-.034-.066-.069-.1l-.417-.402-.417-.403a.534.534 0 0 0-.383-.134.534.534 0 0 0-.382.134l-.418.403-.417.402a.494.494 0 0 0-.139.37c0 .133.035.268.14.368l.416.403.418.402c.104.101.243.135.382.135.14 0 .278-.034.383-.135l.417-.402.417-.403c.035-.033.035-.067.07-.1.034.033.034.067.07.1l.416.403.418.402c.104.101.243.135.382.135.14 0 .278-.034.383-.135l.417-.402.417-.403c.104-.1.139-.235.139-.369a.494.494 0 0 0-.14-.369l-.416-.402ZM53.215 13.688l-.417-.403a.534.534 0 0 0-.382-.134.534.534 0 0 0-.383.134l-.417.403-.417.402c-.035.034-.035.067-.07.1-.035-.033-.035-.066-.07-.1l-.416-.402-.418-.403a.534.534 0 0 0-.382-.134.534.534 0 0 0-.383.134l-.417.403-.417.402c-.035.034-.035.067-.07.1-.034-.033-.034-.066-.07-.1l-.416-.402-.417-.403a.534.534 0 0 0-.383-.134.534.534 0 0 0-.382.134l-.418.403-.417.402a.494.494 0 0 0-.139.37c0 .133.035.268.14.368l.416.403.418.402c.104.101.243.135.382.135.14 0 .278-.034.383-.135l.417-.402.417-.403c.035-.033.035-.067.07-.1.034.033.034.067.069.1l.417.403.417.402c.105.101.244.135.383.135s.278-.034.382-.135l.417-.402.418-.403c.034-.033.034-.067.07-.1.034.033.034.067.069.1l.417.403.417.402c.105.101.244.135.383.135a.534.534 0 0 0 .382-.135l.417-.402.418-.403a.494.494 0 0 0 .139-.369.494.494 0 0 0-.14-.369l-.417-.402Z"/></g><defs><clipPath id="clip0_4_3637"><path fill="#fff" transform="translate(.125)" d="M0 0h53.647v16H0z"/></clipPath></defs></svg>