<?xml version="1.0" standalone="no"?>
<!DOCTYPE svg PUBLIC "-//W3C//DTD SVG 20010904//EN"
 "http://www.w3.org/TR/2001/REC-SVG-20010904/DTD/svg10.dtd">
<svg version="1.0" xmlns="http://www.w3.org/2000/svg"
 width="512.000000pt" height="512.000000pt" viewBox="0 0 512.000000 512.000000"
 preserveAspectRatio="xMidYMid meet">
<metadata>
Created by potrace 1.14, written by Peter Selinger 2001-2017
</metadata>
<g transform="translate(0.000000,512.000000) scale(0.100000,-0.100000)"
fill="#000000" stroke="none">
<path d="M0 2560 l0 -2560 2560 0 2560 0 0 2560 0 2560 -2560 0 -2560 0 0
-2560z m1508 260 c22 -6 73 -47 141 -112 197 -191 399 -299 661 -355 119 -25
381 -25 500 0 262 56 464 164 661 354 156 151 172 153 344 35 167 -114 193
-137 205 -183 16 -57 0 -97 -73 -181 -235 -272 -623 -496 -997 -576 -577 -124
-1179 35 -1627 427 -115 101 -218 221 -227 262 -9 45 9 101 41 131 41 37 275
195 298 201 32 8 38 8 73 -3z"/>
</g>
</svg>
