<svg width="135" height="40" fill="none" xmlns="http://www.w3.org/2000/svg"><path d="M0 4a4 4 0 0 1 4-4h127a4 4 0 0 1 4 4v32a4 4 0 0 1-4 4H4a4 4 0 0 1-4-4V4Z" fill="#fff"/><path fill-rule="evenodd" clip-rule="evenodd" d="m23.81 8.5-.59.6.59.6.6-.6-.6-.6Zm.25 4.89c.096-.263.15-.54.16-.82V10.5h-.81v2c0 .192-.023.384-.07.57a.909.909 0 0 1-.22.37.83.83 0 0 1-.38.21 2.12 2.12 0 0 1-.54.06h-.41v.82h.41a2.41 2.41 0 0 0 .83-.14 1.72 1.72 0 0 0 .62-.39c.176-.174.315-.382.41-.61Z" fill="#000"/><path d="M25.93 12.77h-.82V8.06h.82v4.71Z" fill="#000"/><path fill-rule="evenodd" clip-rule="evenodd" d="M29.36 7.44a.5.5 0 0 0-.5.5.45.45 0 0 0 .16.32.56.56 0 0 0 .72 0 .45.45 0 0 0 .12-.32.5.5 0 0 0-.5-.5Zm-.45 5.28h.85v-3.8h-.85v3.8ZM34.51 11.62a3.2 3.2 0 0 0 .26-1.32V10a3.05 3.05 0 0 0-.27-1.34 2 2 0 0 0-.74-.86 2.2 2.2 0 0 0-2.22 0 2.09 2.09 0 0 0-.75.88c-.18.417-.268.867-.26 1.32v.33a3 3 0 0 0 .27 1.3c.156.356.418.656.75.86a2.2 2.2 0 0 0 2.22 0 1.93 1.93 0 0 0 .74-.87Zm-.95-2.92c.235.391.346.844.32 1.3v.29c.029.46-.083.916-.32 1.31a1 1 0 0 1-.9.45 1.06 1.06 0 0 1-.92-.46 2.26 2.26 0 0 1-.33-1.3V10a2.22 2.22 0 0 1 .34-1.3 1 1 0 0 1 .9-.45c.36-.016.704.154.91.45Z" fill="#000"/><path d="M38.24 11.41a.61.61 0 0 0-.24-.52 2.56 2.56 0 0 0-.85-.37 4.212 4.212 0 0 1-1-.42 1.3 1.3 0 0 1-.7-1.14 1.24 1.24 0 0 1 .5-1 2 2 0 0 1 1.31-.4 2.1 2.1 0 0 1 .95.2c.268.122.496.316.66.56.151.24.231.517.23.8h-.88a.82.82 0 0 0-.25-.63 1.05 1.05 0 0 0-.72-.22 1.09 1.09 0 0 0-.67.18.63.63 0 0 0-.24.52.54.54 0 0 0 .26.47c.262.168.549.293.85.37a4 4 0 0 1 1 .4c.216.128.398.306.53.52.115.212.173.45.17.69a1.21 1.21 0 0 1-.49 1 2.14 2.14 0 0 1-1.33.37c-.343 0-.683-.068-1-.2a1.829 1.829 0 0 1-.73-.57 1.41 1.41 0 0 1-.25-.84h.89a.82.82 0 0 0 .28.67c.24.174.534.259.83.24.248.02.496-.048.7-.19a.61.61 0 0 0 .19-.49Z" fill="#000"/><path fill-rule="evenodd" clip-rule="evenodd" d="M45.23 12.77h.09v-.85H44.98a.71.71 0 0 1-.28-.09.82.82 0 0 1-.26-.2.73.73 0 0 1-.17-.34l-.6-2.32-.79.19.07.31c-.2.073-.398.156-.59.25-.187.09-.361.205-.52.34a1.8 1.8 0 0 0-.35.47 1.38 1.38 0 0 0-.14.62c-.002.189.035.376.11.55a1.2 1.2 0 0 0 .28.41c.117.115.257.204.41.26.156.06.323.091.49.09h.3c.1-.02.197-.05.29-.09.097-.041.188-.095.27-.16a.8.8 0 0 0 .2-.21 1.3 1.3 0 0 0 .25.37c.107.101.228.185.36.25a2 2 0 0 0 .43.15c.163.015.327.015.49 0Zm-1.91-1.81c.01.063.01.127 0 .19h-.01a.53.53 0 0 1-.19.34 1 1 0 0 1-.41.14.499.499 0 0 1-.21 0 .56.56 0 0 1-.19-.09.36.36 0 0 1-.14-.16.37.37 0 0 1-.06-.21.63.63 0 0 1 .27-.52c.24-.17.508-.298.79-.38.041.052.043.1.044.147.001.043.002.084.036.123.07.08.07.16.07.23a1.23 1.23 0 0 1 0 .19Z" fill="#000"/><path fill-rule="evenodd" clip-rule="evenodd" d="m46.67 8.01-.58.59.59.6.6-.59-.61-.6Zm2.84 3.53.11-.07-.11-.67h-.15l-.29-.11-.39-.14-.44-.16-.46-.16-.43-.13L47 10l-.26-.09a.94.94 0 0 0-.69.27c-.088.089-.162.19-.22.3-.06.119-.11.243-.15.37l.75.23a.481.481 0 0 1 .08-.16.44.44 0 0 1 .08-.11.24.24 0 0 1 .11-.06h.13a.72.72 0 0 1 .19 0l.29.06.33.09.36.1.39.18.33.1a5.088 5.088 0 0 1-.56.25c-.217.095-.441.171-.67.23a5.65 5.65 0 0 1-.71.17c-.227.046-.458.07-.69.07h-1v.74h1c.224 0 .449-.02.67-.06.22-.04.44-.09.65-.15.207-.063.41-.136.61-.22l.54-.24c.108.21.275.383.48.5.216.114.456.172.7.17h.6v-.81h-.83l-.14-.08a.562.562 0 0 1-.1-.15l.24-.16Z" fill="#000"/><path d="M51.58 12a.13.13 0 0 1 .1 0 .12.12 0 0 1 0 .09v.56a.11.11 0 0 1 0 .1.13.13 0 0 1-.1 0h-1.36a.11.11 0 0 1-.13-.13v-.56a.158.158 0 0 1 0-.09.13.13 0 0 1 .1 0l1.39.03Z" fill="#000"/><path d="M52.94 12a.17.17 0 0 1 .1 0 .16.16 0 0 1 0 .09v.56a.13.13 0 0 1 0 .1.17.17 0 0 1-.1 0h-1.37a.11.11 0 0 1-.13-.13v-.56a.158.158 0 0 1 0-.09.13.13 0 0 1 .1 0l1.4.03Z" fill="#000"/><path d="M52.83 12h.42c.103.012.207.012.31 0a.669.669 0 0 0 .19-.1.421.421 0 0 0 .09-.16 1.237 1.237 0 0 0 0-.2v-1h.81v.94a.51.51 0 0 0 .13.38.59.59 0 0 0 .41.13h.12a.37.37 0 0 0 .25-.22.58.58 0 0 0 .05-.25v-1h.81v.94a.5.5 0 0 0 .13.39.57.57 0 0 0 .45.15.41.41 0 0 0 .16 0 .29.29 0 0 0 .14-.08.56.56 0 0 0 .1-.15.65.65 0 0 0 0-.22v-1h.81v1a.47.47 0 0 0 .15.37.78.78 0 0 0 .45.11h.32v.81h-.32a1.999 1.999 0 0 1-.58-.07 1.069 1.069 0 0 1-.43-.24 1.09 1.09 0 0 1-.39.23 1.209 1.209 0 0 1-.46.08 1.697 1.697 0 0 1-.53-.07 1.059 1.059 0 0 1-.41-.24 1.479 1.479 0 0 1-.38.23 1.31 1.31 0 0 1-.43.08 1.46 1.46 0 0 1-.95-.3 1.59 1.59 0 0 1-1 .3h-.42V12Z" fill="#000"/><path fill-rule="evenodd" clip-rule="evenodd" d="m60.07 8.09-.59.59.59.6.6-.59-.6-.6Zm.8 2.01V10l-.64.31c.003.047.003.093 0 .14.05.06.05.13.05.2v.69c.005.06.005.12 0 .18.018.09.018.18 0 .27a.638.638 0 0 1-.13.15.47.47 0 0 1-.15.06h-1v.74h.67c.154.003.307-.024.45-.08.15-.05.289-.129.41-.23.12-.118.22-.257.29-.41a1.5 1.5 0 0 0 .11-.58v-.55l-.06-.31c.007-.09.007-.18 0-.27v-.21ZM65.92 10.24l-.55-.55.54-.57.56.57-.55.55Zm3.89.27v1a.59.59 0 0 0 0 .2.38.38 0 0 0 .09.13.25.25 0 0 0 .12.08.31.31 0 0 0 .12.05h.39v.81h-.44l-.26-.05-.24-.09a.803.803 0 0 1-.21-.15 1.46 1.46 0 0 1-1 .3h-3.7a1.442 1.442 0 0 1-.46-.08 1 1 0 0 1-.38-.24 1.004 1.004 0 0 1-.13-.15 1.15 1.15 0 0 1-.22-.48 1.225 1.225 0 0 1 0-.34 1.593 1.593 0 0 1 0-.36c0-.12 0-.24.07-.36a.292.292 0 0 0 .036-.155c.001-.05.002-.094.044-.135.06-.06.029-.11.01-.14-.005-.008-.01-.015-.01-.02l.39.13.39.12c0 .06 0 .13-.07.21l-.06.25v.26a1.906 1.906 0 0 0 0 .2.633.633 0 0 0 0 .26.31.31 0 0 0 .11.14.24.24 0 0 0 .13.07H68.41a1 1 0 0 0 .31 0 .35.35 0 0 0 .19-.1.33.33 0 0 0 .07-.24v-1.12h.83Zm-3.07-.83.55.56.56-.56-.57-.56-.54.56Z" fill="#000"/><path d="M71.86 12a.13.13 0 0 1 .1 0 .12.12 0 0 1 0 .09v.56a.11.11 0 0 1 0 .1.13.13 0 0 1-.1 0H70.5a.11.11 0 0 1-.13-.13v-.56a.16.16 0 0 1 0-.09.13.13 0 0 1 .1 0l1.39.03Z" fill="#000"/><path d="M73.22 12a.17.17 0 0 1 .1 0 .16.16 0 0 1 0 .09v.56a.13.13 0 0 1 0 .1.17.17 0 0 1-.1 0h-1.37a.11.11 0 0 1-.13-.13v-.56a.16.16 0 0 1 0-.09.13.13 0 0 1 .1 0l1.4.03Z" fill="#000"/><path fill-rule="evenodd" clip-rule="evenodd" d="m74.27 7.86.58-.6.61.61-.6.59-.59-.6Zm-1.15 4.91V12h1.34c.153.012.307.012.46 0 .102-.017.203-.044.3-.08a.62.62 0 0 0 .17-.11.47.47 0 0 0 .09-.12c-.259.03-.52.03-.78 0a1.468 1.468 0 0 1-.59-.2 1 1 0 0 1-.37-.4 1.2 1.2 0 0 1-.13-.59 1.27 1.27 0 0 1 .1-.52A1.34 1.34 0 0 1 74 9.5a1.26 1.26 0 0 1 .97-.38c.16.007.319.037.47.09.127.055.245.13.35.22.096.09.177.195.24.31a1.8 1.8 0 0 1 .16.38c.04.141.07.285.09.43.01.15.01.3 0 .45v.25a2 2 0 0 1-.18.75 1.34 1.34 0 0 1-.41.47 1.81 1.81 0 0 1-.57.24c-.22.04-.445.06-.67.06h-1.33Zm1.65-2.84a.86.86 0 0 1 .23 0 .59.59 0 0 1 .31.06.6.6 0 0 1 .16.23c.037.097.064.197.08.3v.3a1.56 1.56 0 0 1-.86 0 .42.42 0 0 1-.3-.41.4.4 0 0 1 .05-.22.42.42 0 0 1 .13-.16.47.47 0 0 1 .2-.1Z" fill="#000"/><path d="M78.66 12.77a3.797 3.797 0 0 1-.62 0 1.565 1.565 0 0 1-.43-.13.782.782 0 0 1-.28-.22 1.092 1.092 0 0 1-.17-.32 2.223 2.223 0 0 1-.07-.4V8.06h.82v3.09c-.012.14-.012.28 0 .42.003.09.035.178.09.25a.45.45 0 0 0 .23.11c.143.013.287.013.43 0v.84Z" fill="#000"/><path fill-rule="evenodd" clip-rule="evenodd" d="M81 10a.29.29 0 0 1 0 .1v1.34a1.5 1.5 0 0 1-.11.58 1.38 1.38 0 0 1-.29.41 1.27 1.27 0 0 1-.41.23 1.189 1.189 0 0 1-.45.08h-1.22V12h1.55a.47.47 0 0 0 .15-.06.998.998 0 0 0 .13-.15.679.679 0 0 0 .05-.27c.004-.06.004-.12 0-.18v-.22c.005-.08.005-.16 0-.24V10.31L81 10Zm-1.76 4.52-.6-.52.54-.56.56.56-.5.52ZM80 14l.61.52.49-.52-.56-.56L80 14Z" fill="#000"/><path d="M83.85 12.57a2.66 2.66 0 0 1-.17.82 1.85 1.85 0 0 1-.4.61 1.76 1.76 0 0 1-.63.39 2.371 2.371 0 0 1-.83.14h-.4v-.82h.4c.185.003.37-.018.55-.06a.75.75 0 0 0 .37-.21.91.91 0 0 0 .22-.37c.041-.187.055-.38.04-.57v-2h.82l.03 2.07ZM85.67 12.78h-.49l-.26-.06-.27-.08-.39-.12.23-.78c.194.067.39.124.59.17.19.05.384.084.58.1.156.026.315.026.47 0a.33.33 0 0 0 .26-.19.14.14 0 0 0 0-.11.514.514 0 0 0-.07-.15L85.1 9.79l.68-.45.23.34v.07l.1.15.17.25.26.39.46.46c.106.157.177.334.21.52a1 1 0 0 1-.44.95c-.17.11-.36.185-.56.22a3.137 3.137 0 0 1-.54.09ZM38.73 28.51l-1.32-2.64a1.41 1.41 0 0 0-1.26-.78H22.3a.57.57 0 0 0-.51.82l.89 1.73a2.78 2.78 0 0 0 2.48 1.5h13.17a.44.44 0 0 0 .4-.63ZM31.42 30.52h-2.07a.37.37 0 0 0-.37.36v2c.005.2.17.36.37.36h2.07c.2 0 .365-.16.37-.36v-2a.37.37 0 0 0-.37-.36ZM86.51 25.09H71.43a.25.25 0 0 1-.24-.34 6.16 6.16 0 0 0 .35-2.07v-2.07a.47.47 0 0 0-.47-.47h-3.2a.47.47 0 0 0-.47.47v2.1a2.4 2.4 0 0 1-2.4 2.38h-1.39a.25.25 0 0 1-.24-.33c.224-.643.338-1.32.34-2v-2.1a.47.47 0 0 0-.48-.47H60a.48.48 0 0 0-.48.47v2.07a2.39 2.39 0 0 1-2.42 2.38h-9.28a1.41 1.41 0 0 0-1.26.78l-1.32 2.64a.44.44 0 0 0 .4.63h11.48a6.64 6.64 0 0 0 5.1-2.36l.92 1.84a.89.89 0 0 0 .8.49h1a6.61 6.61 0 0 0 5.3-2.62l.94 2.12a.89.89 0 0 0 .81.53h11.66a2.81 2.81 0 0 0 2.49-1.51l.86-1.74a.56.56 0 0 0-.49-.82ZM69.38 30.52H63.8a.37.37 0 0 0-.37.36v2c.006.2.17.36.37.36h5.58c.2 0 .365-.16.37-.36v-2a.37.37 0 0 0-.37-.36ZM38.67 30.52h-5.58a.37.37 0 0 0-.37.36v2c.006.2.17.36.37.36h5.58c.2 0 .365-.16.37-.36v-2a.37.37 0 0 0-.37-.36ZM55.57 30.52h-2.06a.36.36 0 0 0-.37.36v2a.36.36 0 0 0 .37.36h2.06a.36.36 0 0 0 .37-.36v-2a.36.36 0 0 0-.37-.36ZM43.71 16.25h-3.43a.36.36 0 0 0-.36.35v12.15a.4.4 0 0 0 .4.39h3.35a.39.39 0 0 0 .39-.39V16.6a.35.35 0 0 0-.35-.35ZM107 17.83a7 7 0 0 1 1.55 8.39c3.73-6.23 2.32-11.13 2.32-11.13-8.1-4.06-12.65-.6-12.65-.6a13.1 13.1 0 0 1 8.78 3.34Z" fill="#000"/><path d="M97.83 19.17a6.9 6.9 0 0 1 8.35-1.56c-6.2-3.75-11.07-2.34-11.07-2.34-4 8.15-.6 12.72-.6 12.72a13.23 13.23 0 0 1 3.32-8.82Z" fill="#000"/><path d="M99.27 28.25a7 7 0 0 1-1.56-8.38C94 26.09 95.4 31 95.4 31c8.1 4.06 12.64.6 12.64.6a13.08 13.08 0 0 1-8.77-3.35Z" fill="#000"/><path d="M111.8 18.07a13.213 13.213 0 0 1-3.33 8.82 6.89 6.89 0 0 1-8.34 1.56c6.19 3.75 11.07 2.33 11.07 2.33 4.04-8.14.6-12.71.6-12.71ZM108.92 6.19c-5.79.11-6.17 5.17-6.17 5.17 5.82.49 6.17-5.17 6.17-5.17Z" fill="#000"/><path d="M4 1h127v-2H4v2Zm130 3v32h2V4h-2Zm-3 35H4v2h127v-2ZM1 36V4h-2v32h2Zm3 3a3 3 0 0 1-3-3h-2a5 5 0 0 0 5 5v-2Zm130-3a3 3 0 0 1-3 3v2a5 5 0 0 0 5-5h-2Zm-3-35a3 3 0 0 1 3 3h2a5 5 0 0 0-5-5v2ZM4-1a5 5 0 0 0-5 5h2a3 3 0 0 1 3-3v-2Z" fill="#E0E0E0"/></svg>