<svg width="96" height="12" fill="none" xmlns="http://www.w3.org/2000/svg"><path d="M58.307.008h-8.813v2.997h8.813V.008ZM0 2.844a3.025 3.025 0 0 1 .34-1.43C.561.993.874.64 1.25.392a2.243 2.243 0 0 1 1.27-.382h8.092v2.986H3.266a.533.533 0 0 0-.238.05.685.685 0 0 0-.333.378.75.75 0 0 0-.044.265v.085a.759.759 0 0 0 .046.275c.032.088.08.166.14.231.059.067.128.12.205.156a.557.557 0 0 0 .242.053h4.755a2.27 2.27 0 0 1 1.292.392c.385.256.706.617.933 1.05.233.442.353.948.348 1.462v1.653a3.08 3.08 0 0 1-.352 1.47 2.858 2.858 0 0 1-.938 1.054 2.296 2.296 0 0 1-1.3.393H.001V8.976h7.296a.596.596 0 0 0 .26-.05.658.658 0 0 0 .222-.16.755.755 0 0 0 .15-.244.828.828 0 0 0 0-.583.755.755 0 0 0-.15-.245.658.658 0 0 0-.222-.16.595.595 0 0 0-.26-.049H2.383a2.122 2.122 0 0 1-1.2-.362A2.593 2.593 0 0 1 .32 6.15 2.883 2.883 0 0 1 0 4.795v-1.95Zm17.654.896 2.65-3.733h2.65V11.96h-2.65V4.486l-2.65 3.74-2.65-3.74v7.474h-2.659V.007h2.658l2.65 3.733ZM28.759.007h2.65l3.983 11.953h-2.65L30.09 4.486l-2.65 7.474h-2.659L28.76.007Zm16.255 0a2.44 2.44 0 0 1 1.382.415c.41.272.751.657.993 1.118.247.472.376 1.01.37 1.559v1.29a3.28 3.28 0 0 1-.37 1.556c-.243.46-.584.845-.993 1.117-.418.28-.896.425-1.382.418h-1.236l3.982 4.48h-3.976l-3.97-4.48v4.48h-2.665V4.473h2.664v.013h4.724a.514.514 0 0 0 .218-.049.57.57 0 0 0 .185-.139.652.652 0 0 0 .124-.208.711.711 0 0 0 .043-.246v-.208a.711.711 0 0 0-.043-.246.652.652 0 0 0-.124-.208.57.57 0 0 0-.184-.139.514.514 0 0 0-.219-.048H37.15V.009l7.865-.002Z" fill="#424750"/><path d="M89.368 11.967h-2.65V.007h2.65v4.479h3.982V.007H96V11.96h-2.65V7.48h-3.982v4.486Zm-35.864 0V3.003L58.112.007h2.025v2.994h-3.981v8.966h-2.652Zm19.027-.007H61.92V4.486h10.611V7.48h-7.958v1.491h7.958v2.989ZM85 11.953h-8.153a2.19 2.19 0 0 1-1.238-.372 2.689 2.689 0 0 1-.889-1.002 2.965 2.965 0 0 1-.33-1.393V4.48h2.65v2.9c-.003.208.032.415.102.607.071.193.176.366.31.511.128.15.284.269.455.349.172.08.356.118.542.114h6.549v2.986l.002.006ZM72.53 2.995H61.92V.01h10.611v2.985ZM85 2.99H74.39v-.11a3.073 3.073 0 0 1 .345-1.446c.225-.43.544-.79.926-1.044.39-.26.835-.394 1.287-.389h8.056v2.986L85 2.989Z" fill="#81858B"/></svg>