<svg width="55" height="54" fill="none" xmlns="http://www.w3.org/2000/svg"><path fill-rule="evenodd" clip-rule="evenodd" d="M39.495 36.385a5.074 5.074 0 1 0 0-10.148v10.148Z" fill="#E6123D"/><path fill-rule="evenodd" clip-rule="evenodd" d="M40.301 35.501V27.12a4.275 4.275 0 0 1 3.461 4.19 4.274 4.274 0 0 1-3.46 4.191Zm.406-24.083c-3.01-3.01-6.997-4.668-11.226-4.668-4.229 0-8.216 1.658-11.226 4.668a16.056 16.056 0 0 0-2.83 3.817c-.474 1.294 1.055 1.61 1.425.75 2.398-4.53 7.16-7.622 12.631-7.622 7.875 0 14.281 6.407 14.281 14.281v4.627a5.863 5.863 0 0 0-4.267-1.841.807.807 0 0 0-.807.806v10.149c0 .446.36.807.807.807 3.212 0 5.83-2.59 5.878-5.791 0-.01.002-2.929.002-8.757 0-4.228-1.657-8.215-4.668-11.226ZM43.905 36.303a.786.786 0 0 0-.55.228.785.785 0 0 0-.228.552c0 .203.083.404.228.55a.784.784 0 0 0 .55.227.784.784 0 0 0 .55-.227.786.786 0 0 0 .228-.55.784.784 0 0 0-.228-.552.786.786 0 0 0-.55-.227ZM32.252 44.02l1.145-.243.243 1.145-1.144.243-.244-1.145Zm11.211-5.18a.807.807 0 0 0-1.102.294c-1.566 2.71-4.027 4.575-7.147 5.429l-.406-1.91a.807.807 0 0 0-.957-.622l-2.723.579a.807.807 0 0 0-.622.957l.58 2.723c.092.436.52.714.956.621l2.723-.578c3.953-.84 7.063-3.05 8.993-6.391a.807.807 0 0 0-.295-1.103Z" fill="#424750"/><path fill-rule="evenodd" clip-rule="evenodd" d="M11.847 37.462a2.739 2.739 0 0 1-2.739-2.74V20.362a2.739 2.739 0 0 1 2.74-2.74h19.728a2.739 2.739 0 0 1 2.739 2.74v18.052a1.743 1.743 0 0 1-3.096 1.099l-1.664-2.05H11.847Zm0-18.346c-.687 0-1.245.557-1.245 1.245v14.362c0 .687.558 1.245 1.245 1.245h18.42l2.112 2.602a.249.249 0 0 0 .442-.157V20.361c0-.688-.557-1.245-1.245-1.245H11.847Z" fill="#19BFD3"/><path fill-rule="evenodd" clip-rule="evenodd" d="M26.3 26.765h5.021v1.306l-2.633 6.51h-1.622l2.556-6.343H26.3v-1.473Zm-1.98-.14v1.43h-.833v1.328h-1.544v-1.328h-3.678v-1.43l2.678-5.214h1.645l-2.667 5.214h2.021v-1.853h1.545v1.853h.833Zm-12.085 2.758v-1.15l2.655-2.747c.5-.524.889-1.038.889-1.563 0-.625-.422-1.016-1.011-1.016-.6 0-1.045.357-1.3.916l-1.289-.76c.5-1.116 1.511-1.652 2.567-1.652 1.333 0 2.566.893 2.566 2.456 0 .95-.544 1.765-1.278 2.501l-1.522 1.53h2.922v1.485h-5.2Z" fill="#424750"/><path fill-rule="evenodd" clip-rule="evenodd" d="m28.002 21.687-6.938 12.894h.672l6.933-12.894h-.668Z" fill="#E6123D"/></svg>